<svg width="26" height="26" viewBox="0 0 26 26" fill="none" xmlns="http://www.w3.org/2000/svg">
<g clip-path="url(#clip0_522_1113)">
<circle cx="13" cy="13" r="12.5" fill="url(#paint0_linear_522_1113)" stroke="url(#paint1_linear_522_1113)"/>
<path d="M7.53136 13.0001L7.5398 16.0947L10.1693 17.642V19.4537L6.00094 17.009V12.0952L7.53136 13.0001ZM7.53136 9.9055V11.7088L6 10.8029V8.99962L7.53136 8.09375L9.07021 8.99962L7.53136 9.9055ZM11.2674 8.99962L12.7987 8.09375L14.3376 8.99962L12.7987 9.9055L11.2674 8.99962Z" fill="white"/>
<path d="M8.6377 15.4533V13.6415L10.1691 14.5474V16.3507L8.6377 15.4533ZM11.2672 18.2909L12.7985 19.1968L14.3374 18.2909V20.0942L12.7985 21.0001L11.2672 20.0942V18.2909ZM16.5336 8.99962L18.065 8.09375L19.6038 8.99962V10.8029L18.065 11.7088V9.9055L16.5336 8.99962ZM18.065 16.0947L18.0734 13.0001L19.6048 12.0942V17.0081L15.4364 19.4528V17.641L18.065 16.0947Z" fill="white"/>
<path d="M16.9669 15.4533L15.4355 16.3508V14.5475L16.9669 13.6416V15.4533Z" fill="white"/>
<path d="M16.9668 10.5468L16.9753 12.3586L14.3383 13.9059V17.008L12.807 17.9054L11.2756 17.008V13.9059L8.63863 12.3586V10.5468L10.1766 9.64096L12.7976 11.1958L15.4346 9.64096L16.9734 10.5468H16.9668ZM8.6377 7.45317L12.7985 5L16.9668 7.45317L15.4355 8.35904L12.7985 6.80424L10.1691 8.35904L8.6377 7.45317Z" fill="white"/>
</g>
<defs>
<linearGradient id="paint0_linear_522_1113" x1="0.609378" y1="26" x2="26" y2="0.609378" gradientUnits="userSpaceOnUse">
<stop stop-color="#F0A40B"/>
<stop offset="1" stop-color="#F0B90B"/>
</linearGradient>
<linearGradient id="paint1_linear_522_1113" x1="13.4333" y1="-6.02669e-08" x2="13.4333" y2="12.6486" gradientUnits="userSpaceOnUse">
<stop stop-color="white" stop-opacity="0.25"/>
<stop offset="1" stop-color="white" stop-opacity="0"/>
</linearGradient>
<clipPath id="clip0_522_1113">
<rect width="26" height="26" fill="white"/>
</clipPath>
</defs>
</svg>
