<svg width="26" height="26" viewBox="0 0 26 26" fill="none" xmlns="http://www.w3.org/2000/svg">
<g clip-path="url(#clip0_522_1099)">
<circle cx="13" cy="13" r="12.5" fill="url(#paint0_linear_522_1099)" stroke="url(#paint1_linear_522_1099)"/>
<path d="M18.4024 6H7.59697C5.61023 6 4.35099 8.14304 5.35052 9.8755L12.0192 21.434C12.4544 22.1887 13.545 22.1887 13.9802 21.434L20.6502 9.8755C21.6484 8.14581 20.3892 6 18.4038 6H18.4024ZM12.0138 17.9677L10.5615 15.157L7.05714 8.88962C6.82596 8.48847 7.1115 7.97442 7.59561 7.97442H12.0125V17.9691L12.0138 17.9677ZM18.9395 8.88826L15.4366 15.1584L13.9842 17.9677V7.97307H18.4011C18.8852 7.97307 19.1707 8.48711 18.9395 8.88826Z" fill="white"/>
</g>
<defs>
<linearGradient id="paint0_linear_522_1099" x1="0.609378" y1="26" x2="26" y2="0.609378" gradientUnits="userSpaceOnUse">
<stop stop-color="#008CEA"/>
<stop offset="1" stop-color="#65BFFF"/>
</linearGradient>
<linearGradient id="paint1_linear_522_1099" x1="13.4333" y1="-6.02669e-08" x2="13.4333" y2="12.6486" gradientUnits="userSpaceOnUse">
<stop stop-color="white" stop-opacity="0.25"/>
<stop offset="1" stop-color="white" stop-opacity="0"/>
</linearGradient>
<clipPath id="clip0_522_1099">
<rect width="26" height="26" fill="white"/>
</clipPath>
</defs>
</svg>
