<svg width="26" height="26" viewBox="0 0 26 26" fill="none" xmlns="http://www.w3.org/2000/svg">
<g clip-path="url(#clip0_522_1082)">
<circle cx="13" cy="13" r="12.5" fill="url(#paint0_linear_522_1082)" stroke="url(#paint1_linear_522_1082)"/>
<path d="M15.9254 14.0173C15.9254 12.5 14.9946 11.9798 13.133 11.763C11.8032 11.5896 11.5373 11.2428 11.5373 10.6358C11.5373 10.0288 11.9806 9.63872 12.867 9.63872C13.6649 9.63872 14.1081 9.89883 14.3297 10.5491C14.3741 10.6792 14.5071 10.7659 14.64 10.7659H15.3491C15.5265 10.7659 15.6595 10.6358 15.6595 10.4625V10.4191C15.4821 9.46527 14.6843 8.72831 13.6649 8.64164V7.60117C13.6649 7.42772 13.5319 7.29766 13.3103 7.25428H12.6454C12.4681 7.25428 12.3351 7.38433 12.2908 7.60117V8.59825C10.9611 8.77169 10.119 9.63872 10.119 10.7226C10.119 12.1532 11.0054 12.7167 12.867 12.9336C14.1081 13.1503 14.5071 13.4104 14.5071 14.1041C14.5071 14.7978 13.8864 15.2746 13.0444 15.2746C11.8919 15.2746 11.4929 14.7977 11.36 14.1474C11.3157 13.974 11.1827 13.8873 11.0498 13.8873H10.2962C10.119 13.8873 9.98599 14.0173 9.98599 14.1908V14.2341C10.1632 15.3179 10.8724 16.0982 12.3351 16.3151V17.3555C12.3351 17.5289 12.4681 17.659 12.6897 17.7023H13.3546C13.5319 17.7023 13.6649 17.5723 13.7092 17.3555V16.3151C15.0389 16.0982 15.9254 15.1878 15.9254 14.0173Z" fill="white"/>
<path d="M10.7395 18.5694C7.28218 17.3555 5.50917 13.5839 6.79465 10.2456C7.45951 8.4248 8.92221 7.03755 10.7395 6.38725C10.9168 6.30058 11.0054 6.17053 11.0054 5.95369V5.34679C11.0054 5.17334 10.9168 5.04328 10.7395 5C10.6951 5 10.6065 5 10.5621 5.04328C6.35137 6.34387 4.04647 10.7226 5.3762 14.8411C6.17404 17.2688 8.08001 19.133 10.5621 19.9133C10.7395 20 10.9168 19.9133 10.9611 19.7399C11.0054 19.6966 11.0054 19.6532 11.0054 19.5665V18.9595C11.0054 18.8295 10.8724 18.6561 10.7395 18.5694ZM15.4379 5.04328C15.2605 4.95661 15.0832 5.04328 15.0389 5.21673C14.9946 5.26012 14.9946 5.3034 14.9946 5.39018V5.99708C14.9946 6.17053 15.1276 6.34387 15.2605 6.43064C18.7178 7.64445 20.4908 11.4161 19.2054 14.7544C18.5405 16.5752 17.0778 17.9625 15.2605 18.6127C15.0832 18.6994 14.9946 18.8295 14.9946 19.0463V19.6532C14.9946 19.8267 15.0832 19.9567 15.2605 20C15.3049 20 15.3935 20 15.4379 19.9567C19.6486 18.6561 21.9535 14.2774 20.6238 10.1589C19.826 7.68784 17.8756 5.82363 15.4379 5.04328Z" fill="white"/>
</g>
<defs>
<linearGradient id="paint0_linear_522_1082" x1="0.609377" y1="26" x2="26" y2="0.609371" gradientUnits="userSpaceOnUse">
<stop stop-color="#2775CA"/>
<stop offset="1" stop-color="#499EFB"/>
</linearGradient>
<linearGradient id="paint1_linear_522_1082" x1="13.4333" y1="-6.02669e-08" x2="13.4333" y2="12.6486" gradientUnits="userSpaceOnUse">
<stop stop-color="white" stop-opacity="0.25"/>
<stop offset="1" stop-color="white" stop-opacity="0"/>
</linearGradient>
<clipPath id="clip0_522_1082">
<rect width="26" height="26" fill="white"/>
</clipPath>
</defs>
</svg>
