<svg width="390" height="100" viewBox="0 0 390 100" fill="none" xmlns="http://www.w3.org/2000/svg">
<g clip-path="url(#clip0_505_189)">
<path d="M414.5 160C414.5 170.001 408.489 179.606 397.439 188.413C386.394 197.216 370.382 205.166 350.55 211.852C310.893 225.222 256.074 233.5 195.5 233.5C134.926 233.5 80.1075 225.222 40.4498 211.852C20.6184 205.166 4.60573 197.216 -6.43896 188.413C-17.4887 179.606 -23.5 170.001 -23.5 160C-23.5 149.999 -17.4887 140.394 -6.43896 131.587C4.60573 122.784 20.6184 114.834 40.4498 108.148C80.1075 94.7781 134.926 86.5 195.5 86.5C256.074 86.5 310.893 94.7781 350.55 108.148C370.382 114.834 386.394 122.784 397.439 131.587C408.489 140.394 414.5 149.999 414.5 160Z" stroke="white" stroke-opacity="0.2"/>
<ellipse cx="195.5" cy="78" rx="219.5" ry="74" stroke="white" stroke-opacity="0.3" stroke-width="1.5" stroke-linecap="round" stroke-dasharray="0.1 7"/>
</g>
<defs>
<clipPath id="clip0_505_189">
<rect width="390" height="100" fill="white"/>
</clipPath>
</defs>
</svg>
