<svg width="26" height="26" viewBox="0 0 26 26" fill="none" xmlns="http://www.w3.org/2000/svg">
<g clip-path="url(#clip0_522_2074)">
<path d="M2.47388 24.0045C2.47496 25.0336 3.20946 25.9025 4.22888 25.9458C5.64805 26.0054 7.07046 25.9696 8.4918 25.9696C9.5253 25.9696 10.4266 25.0326 10.3985 23.8528C10.367 22.5301 10.418 21.2041 10.4299 19.8802L10.4786 14.4766C10.4819 14.1461 10.5285 14.0844 10.8415 13.9999C11.5521 13.801 12.3001 13.7761 13.0223 13.9273C14.3548 14.2111 15.3287 15.2381 15.4717 16.5923C15.5432 17.264 15.5475 17.9454 15.5562 18.6225C15.5833 20.3991 15.5974 22.1758 15.6147 23.9536C15.6255 25.1311 16.477 25.987 17.6546 25.9924C18.9232 25.9989 20.1918 26.0011 21.4604 26C22.6585 25.9978 23.5133 25.1571 23.5165 23.9601C23.5241 20.3081 23.5241 16.6562 23.5274 13.0043C23.5274 12.948 23.5274 12.8906 23.522 12.8353C23.4895 12.4507 23.3389 12.1225 22.9987 11.9275C22.7641 11.7869 22.5106 11.6807 22.2458 11.6122C21.2218 11.3651 20.1595 11.3198 19.1182 11.479C18.3133 11.6014 17.5192 11.7964 16.7208 11.9578C15.67 12.1701 14.6126 12.2611 13.5423 12.1506C12.1686 12.0109 10.9748 11.4291 9.8568 10.6556C9.32722 10.2855 8.78752 9.93 8.2383 9.58965C7.56663 9.17798 6.8148 9.04256 6.03913 9.00031C5.20496 8.95373 4.37513 8.93206 3.55505 9.12056C2.91588 9.2679 2.58113 9.63948 2.50855 10.2873C2.49341 10.4237 2.48581 10.5607 2.4858 10.6979M10.4342 3.99857C10.4364 3.47574 10.3356 2.9576 10.1376 2.47373C9.93954 1.98986 9.64814 1.54973 9.28001 1.17848C8.91187 0.807226 8.47422 0.512118 7.99203 0.310004C7.50985 0.10789 6.99258 0.00272881 6.46975 0.000523695C5.94693 -0.00168142 5.42879 0.0991131 4.94492 0.297152C4.46105 0.495192 4.02092 0.786597 3.64967 1.15473C3.27842 1.52287 2.98331 1.96052 2.78119 2.4427C2.57908 2.92489 2.47392 3.44216 2.47171 3.96498C2.4674 5.02087 2.88272 6.03523 3.6263 6.78491C4.36989 7.53459 5.38082 7.95817 6.43671 7.96248C7.49261 7.96679 8.50696 7.55147 9.25664 6.80789C10.0063 6.06431 10.4299 5.05446 10.4342 3.99857ZM19.4638 2.03773C18.4092 2.03283 17.3958 2.44678 16.6463 3.18861C15.8967 3.93045 15.4723 4.9395 15.4663 5.99406C15.4627 6.51856 15.5629 7.03857 15.7611 7.5242C15.9593 8.00982 16.2515 8.45146 16.621 8.82369C16.9906 9.19593 17.43 9.49141 17.9142 9.69315C18.3984 9.89488 18.9176 9.99887 19.4421 9.99915C20.4968 9.99973 21.5087 9.58212 22.256 8.83786C23.0033 8.09361 23.4251 7.08342 23.4288 6.02873C23.4311 4.97395 23.015 3.96131 22.2717 3.21293C21.5284 2.46454 20.5186 2.04152 19.4638 2.03665V2.03773Z" fill="url(#paint0_linear_522_2074)"/>
</g>
<defs>
<linearGradient id="paint0_linear_522_2074" x1="21.5534" y1="23.5628" x2="1.68467" y2="7.47223" gradientUnits="userSpaceOnUse">
<stop offset="0.0470596" stop-color="#69BEFF"/>
<stop offset="0.238821" stop-color="#696EFF"/>
<stop offset="0.5" stop-color="#3A3EC6"/>
<stop offset="0.5" stop-color="#FBCBFF"/>
<stop offset="0.875468" stop-color="#696EFF"/>
</linearGradient>
<clipPath id="clip0_522_2074">
<rect width="26" height="26" fill="white"/>
</clipPath>
</defs>
</svg>
