<svg width="150" height="170" viewBox="0 0 150 170" fill="none" xmlns="http://www.w3.org/2000/svg">
<g clip-path="url(#clip0_542_2228)">
<circle cx="166.5" cy="84.5" r="82" transform="rotate(-90 166.5 84.5)" stroke="url(#paint0_linear_542_2228)"/>
<circle cx="83.5" cy="84.5" r="82.5" transform="rotate(-90 83.5 84.5)" stroke="url(#paint1_linear_542_2228)" stroke-width="1.5" stroke-linecap="round" stroke-dasharray="0.1 7"/>
</g>
<g filter="url(#filter0_d_542_2228)">
<circle cx="82" cy="84" r="50" fill="white" fill-opacity="0.6" shape-rendering="crispEdges"/>
</g>
<path d="M73.4096 54.1968C65.4702 54.1968 59.0157 60.6513 59.0157 68.5907C59.0157 76.3786 65.1066 82.6816 73.046 82.9544C73.2884 82.924 73.5308 82.924 73.7127 82.9544C73.7733 82.9544 73.8036 82.9544 73.8642 82.9544C73.8945 82.9544 73.8945 82.9544 73.9248 82.9544C81.6824 82.6816 87.7733 76.3786 87.8036 68.5907C87.8036 60.6513 81.349 54.1968 73.4096 54.1968Z" fill="url(#paint2_linear_542_2228)"/>
<path d="M88.8034 91.015C80.3489 85.3786 66.561 85.3786 58.0459 91.015C54.1974 93.5907 52.0762 97.0756 52.0762 100.803C52.0762 104.53 54.1974 107.985 58.0156 110.53C62.258 113.379 67.8337 114.803 73.4095 114.803C78.9853 114.803 84.561 113.379 88.8034 110.53C92.6216 107.954 94.7428 104.5 94.7428 100.742C94.7125 97.015 92.6216 93.5604 88.8034 91.015Z" fill="url(#paint3_linear_542_2228)"/>
<path d="M106.712 70.3786C107.197 76.2574 103.015 81.4089 97.2271 82.1059C97.1968 82.1059 97.1968 82.1059 97.1665 82.1059H97.0756C96.8938 82.1059 96.7119 82.1059 96.5604 82.1665C93.621 82.318 90.9241 81.3786 88.8938 79.6513C92.015 76.8634 93.8028 72.6816 93.4392 68.1362C93.2271 65.6816 92.3786 63.4392 91.1059 61.5301C92.2574 60.9543 93.5907 60.5907 94.9544 60.4695C100.894 59.9543 106.197 64.3786 106.712 70.3786Z" fill="url(#paint4_linear_542_2228)"/>
<path d="M112.774 98.409C112.531 101.348 110.652 103.894 107.501 105.621C104.471 107.288 100.652 108.076 96.8646 107.985C99.0464 106.015 100.319 103.561 100.562 100.955C100.865 97.1969 99.0767 93.5909 95.501 90.7121C93.4706 89.106 91.107 87.8333 88.5312 86.8939C95.2282 84.9545 103.652 86.2575 108.834 90.4394C111.622 92.6818 113.046 95.5 112.774 98.409Z" fill="url(#paint5_linear_542_2228)"/>
<defs>
<filter id="filter0_d_542_2228" x="27" y="30" width="110" height="110" filterUnits="userSpaceOnUse" color-interpolation-filters="sRGB">
<feFlood flood-opacity="0" result="BackgroundImageFix"/>
<feColorMatrix in="SourceAlpha" type="matrix" values="0 0 0 0 0 0 0 0 0 0 0 0 0 0 0 0 0 0 127 0" result="hardAlpha"/>
<feOffset dy="1"/>
<feGaussianBlur stdDeviation="2.5"/>
<feComposite in2="hardAlpha" operator="out"/>
<feColorMatrix type="matrix" values="0 0 0 0 0.352303 0 0 0 0 0.338508 0 0 0 0 0.940905 0 0 0 0.18 0"/>
<feBlend mode="normal" in2="BackgroundImageFix" result="effect1_dropShadow_542_2228"/>
<feBlend mode="normal" in="SourceGraphic" in2="effect1_dropShadow_542_2228" result="shape"/>
</filter>
<linearGradient id="paint0_linear_542_2228" x1="166.5" y1="167" x2="166.5" y2="2" gradientUnits="userSpaceOnUse">
<stop offset="0.583829" stop-color="#696EFF"/>
<stop offset="1" stop-color="#F8ACFF" stop-opacity="0"/>
</linearGradient>
<linearGradient id="paint1_linear_542_2228" x1="83.5" y1="167" x2="83.5" y2="2" gradientUnits="userSpaceOnUse">
<stop offset="0.15" stop-color="#696EFF" stop-opacity="0"/>
<stop offset="1" stop-color="#F8ACFF"/>
</linearGradient>
<linearGradient id="paint2_linear_542_2228" x1="90.7428" y1="109.121" x2="46.1681" y2="77.7404" gradientUnits="userSpaceOnUse">
<stop offset="0.0470596" stop-color="#69BEFF"/>
<stop offset="0.238821" stop-color="#696EFF"/>
<stop offset="0.5" stop-color="#3A3EC6"/>
<stop offset="0.5" stop-color="#FBCBFF"/>
<stop offset="0.875468" stop-color="#696EFF"/>
</linearGradient>
<linearGradient id="paint3_linear_542_2228" x1="90.7428" y1="109.121" x2="46.1681" y2="77.7404" gradientUnits="userSpaceOnUse">
<stop offset="0.0470596" stop-color="#69BEFF"/>
<stop offset="0.238821" stop-color="#696EFF"/>
<stop offset="0.5" stop-color="#3A3EC6"/>
<stop offset="0.5" stop-color="#FBCBFF"/>
<stop offset="0.875468" stop-color="#696EFF"/>
</linearGradient>
<linearGradient id="paint4_linear_542_2228" x1="110.531" y1="103.533" x2="80.4391" y2="88.1745" gradientUnits="userSpaceOnUse">
<stop offset="0.0470596" stop-color="#69BEFF"/>
<stop offset="0.238821" stop-color="#696EFF"/>
<stop offset="0.5" stop-color="#3A3EC6"/>
<stop offset="0.5" stop-color="#FBCBFF"/>
<stop offset="0.875468" stop-color="#696EFF"/>
</linearGradient>
<linearGradient id="paint5_linear_542_2228" x1="110.531" y1="103.533" x2="80.4391" y2="88.1745" gradientUnits="userSpaceOnUse">
<stop offset="0.0470596" stop-color="#69BEFF"/>
<stop offset="0.238821" stop-color="#696EFF"/>
<stop offset="0.5" stop-color="#3A3EC6"/>
<stop offset="0.5" stop-color="#FBCBFF"/>
<stop offset="0.875468" stop-color="#696EFF"/>
</linearGradient>
<clipPath id="clip0_542_2228">
<rect width="150" height="170" fill="white"/>
</clipPath>
</defs>
</svg>
