<svg width="102" height="102" viewBox="0 0 102 102" fill="none" xmlns="http://www.w3.org/2000/svg">
<circle cx="51" cy="51" r="39.5" stroke="url(#paint0_linear_552_2619)"/>
<circle cx="51" cy="51" r="50" stroke="white" stroke-width="1.5" stroke-linecap="round" stroke-dasharray="0.1 7"/>
<g filter="url(#filter0_i_552_2619)">
<circle cx="51" cy="51" r="30" fill="white"/>
</g>
<path d="M57.983 34.3335H44.0163C37.9497 34.3335 34.333 37.9502 34.333 44.0168V57.9668C34.333 64.0502 37.9497 67.6668 44.0163 67.6668H57.9663C64.033 67.6668 67.6497 64.0502 67.6497 57.9835V44.0168C67.6663 37.9502 64.0497 34.3335 57.983 34.3335ZM45.1163 45.9668L50.1163 40.9668C50.233 40.8502 50.3663 40.7668 50.5163 40.7002C50.8163 40.5668 51.1663 40.5668 51.4663 40.7002C51.6163 40.7668 51.7497 40.8502 51.8663 40.9668L56.8663 45.9668C57.3497 46.4502 57.3497 47.2502 56.8663 47.7335C56.6163 47.9835 56.2997 48.1002 55.983 48.1002C55.6663 48.1002 55.3497 47.9835 55.0997 47.7335L52.233 44.8668V55.1835C52.233 55.8668 51.6663 56.4335 50.983 56.4335C50.2997 56.4335 49.733 55.8668 49.733 55.1835V44.8668L46.8663 47.7335C46.383 48.2168 45.583 48.2168 45.0997 47.7335C44.6163 47.2502 44.633 46.4668 45.1163 45.9668ZM61.3997 59.7002C58.0497 60.8168 54.533 61.3835 50.9997 61.3835C47.4663 61.3835 43.9497 60.8168 40.5997 59.7002C39.9497 59.4835 39.5997 58.7668 39.8163 58.1168C40.033 57.4668 40.7497 57.1002 41.3997 57.3335C47.5997 59.4002 54.4163 59.4002 60.6163 57.3335C61.2663 57.1168 61.983 57.4668 62.1997 58.1168C62.3997 58.7835 62.0497 59.4835 61.3997 59.7002Z" fill="url(#paint1_linear_552_2619)"/>
<defs>
<filter id="filter0_i_552_2619" x="21" y="21" width="60" height="61" filterUnits="userSpaceOnUse" color-interpolation-filters="sRGB">
<feFlood flood-opacity="0" result="BackgroundImageFix"/>
<feBlend mode="normal" in="SourceGraphic" in2="BackgroundImageFix" result="shape"/>
<feColorMatrix in="SourceAlpha" type="matrix" values="0 0 0 0 0 0 0 0 0 0 0 0 0 0 0 0 0 0 127 0" result="hardAlpha"/>
<feOffset dy="1"/>
<feGaussianBlur stdDeviation="2.5"/>
<feComposite in2="hardAlpha" operator="arithmetic" k2="-1" k3="1"/>
<feColorMatrix type="matrix" values="0 0 0 0 0.352303 0 0 0 0 0.338508 0 0 0 0 0.940905 0 0 0 0.18 0"/>
<feBlend mode="normal" in2="shape" result="effect1_innerShadow_552_2619"/>
</filter>
<linearGradient id="paint0_linear_552_2619" x1="11" y1="51" x2="91" y2="51" gradientUnits="userSpaceOnUse">
<stop stop-color="#696EFF"/>
<stop offset="1" stop-color="#F8ACFF"/>
</linearGradient>
<linearGradient id="paint1_linear_552_2619" x1="64.5263" y1="64.5418" x2="38.4846" y2="38.5131" gradientUnits="userSpaceOnUse">
<stop offset="0.0470596" stop-color="#69BEFF"/>
<stop offset="0.238821" stop-color="#696EFF"/>
<stop offset="0.5" stop-color="#3A3EC6"/>
<stop offset="0.5" stop-color="#FBCBFF"/>
<stop offset="0.875468" stop-color="#696EFF"/>
</linearGradient>
</defs>
</svg>
