<svg width="65" height="50" viewBox="0 0 65 50" fill="none" xmlns="http://www.w3.org/2000/svg">
<path d="M0.333333 38C0.333333 39.4728 1.52724 40.6667 3 40.6667C4.47276 40.6667 5.66667 39.4728 5.66667 38C5.66667 36.5272 4.47276 35.3333 3 35.3333C1.52724 35.3333 0.333333 36.5272 0.333333 38ZM62.2426 26.7574L62.5962 27.1109L62.2426 26.7574ZM2.5 38V43H3.5V38H2.5ZM9 49.5H37.5147V48.5H9V49.5ZM42.1109 47.5962L62.5962 27.1109L61.8891 26.4038L41.4038 46.8891L42.1109 47.5962ZM64.5 22.5147V0H63.5V22.5147H64.5ZM62.5962 27.1109C63.8152 25.8919 64.5 24.2386 64.5 22.5147H63.5C63.5 23.9734 62.9205 25.3724 61.8891 26.4038L62.5962 27.1109ZM37.5147 49.5C39.2386 49.5 40.8919 48.8152 42.1109 47.5962L41.4038 46.8891C40.3724 47.9205 38.9734 48.5 37.5147 48.5V49.5ZM2.5 43C2.5 46.5899 5.41015 49.5 9 49.5V48.5C5.96243 48.5 3.5 46.0376 3.5 43H2.5Z" fill="url(#paint0_linear_552_2735)"/>
<defs>
<linearGradient id="paint0_linear_552_2735" x1="33.5" y1="49" x2="33.5" y2="3" gradientUnits="userSpaceOnUse">
<stop stop-color="#696EFF"/>
<stop offset="1" stop-color="#696EFF" stop-opacity="0"/>
</linearGradient>
</defs>
</svg>
