<svg width="150" height="170" viewBox="0 0 150 170" fill="none" xmlns="http://www.w3.org/2000/svg">
<g clip-path="url(#clip0_558_3751)">
<circle cx="166.5" cy="84.5" r="82" transform="rotate(-90 166.5 84.5)" stroke="url(#paint0_linear_558_3751)"/>
<circle cx="83.5" cy="84.5" r="82.5" transform="rotate(-90 83.5 84.5)" stroke="url(#paint1_linear_558_3751)" stroke-width="1.5" stroke-linecap="round" stroke-dasharray="0.1 7"/>
</g>
<g filter="url(#filter0_d_558_3751)">
<circle cx="82" cy="84" r="50" fill="white" fill-opacity="0.6" shape-rendering="crispEdges"/>
</g>
<path fill-rule="evenodd" clip-rule="evenodd" d="M83.2498 116.318C100.823 116.318 115.068 102.073 115.068 84.4998C115.068 66.9271 100.823 52.6816 83.2498 52.6816C65.6771 52.6816 51.4316 66.9271 51.4316 84.4998C51.4316 102.073 65.6771 116.318 83.2498 116.318ZM87.2271 72.568H79.2725V96.4316H87.2271V72.568Z" fill="url(#paint2_linear_558_3751)"/>
<defs>
<filter id="filter0_d_558_3751" x="27" y="30" width="110" height="110" filterUnits="userSpaceOnUse" color-interpolation-filters="sRGB">
<feFlood flood-opacity="0" result="BackgroundImageFix"/>
<feColorMatrix in="SourceAlpha" type="matrix" values="0 0 0 0 0 0 0 0 0 0 0 0 0 0 0 0 0 0 127 0" result="hardAlpha"/>
<feOffset dy="1"/>
<feGaussianBlur stdDeviation="2.5"/>
<feComposite in2="hardAlpha" operator="out"/>
<feColorMatrix type="matrix" values="0 0 0 0 0.352303 0 0 0 0 0.338508 0 0 0 0 0.940905 0 0 0 0.18 0"/>
<feBlend mode="normal" in2="BackgroundImageFix" result="effect1_dropShadow_558_3751"/>
<feBlend mode="normal" in="SourceGraphic" in2="effect1_dropShadow_558_3751" result="shape"/>
</filter>
<linearGradient id="paint0_linear_558_3751" x1="166.5" y1="167" x2="166.5" y2="2" gradientUnits="userSpaceOnUse">
<stop offset="0.583829" stop-color="#696EFF"/>
<stop offset="1" stop-color="#F8ACFF" stop-opacity="0"/>
</linearGradient>
<linearGradient id="paint1_linear_558_3751" x1="83.5" y1="167" x2="83.5" y2="2" gradientUnits="userSpaceOnUse">
<stop offset="0.15" stop-color="#696EFF" stop-opacity="0"/>
<stop offset="1" stop-color="#F8ACFF"/>
</linearGradient>
<linearGradient id="paint2_linear_558_3751" x1="109.102" y1="110.352" x2="59.3862" y2="60.6362" gradientUnits="userSpaceOnUse">
<stop offset="0.0470596" stop-color="#69BEFF"/>
<stop offset="0.238821" stop-color="#696EFF"/>
<stop offset="0.5" stop-color="#3A3EC6"/>
<stop offset="0.5" stop-color="#FBCBFF"/>
<stop offset="0.875468" stop-color="#696EFF"/>
</linearGradient>
<clipPath id="clip0_558_3751">
<rect width="150" height="170" fill="white"/>
</clipPath>
</defs>
</svg>
