<svg width="18" height="18" viewBox="0 0 18 18" fill="none" xmlns="http://www.w3.org/2000/svg">
<path d="M15.6668 6.20659V11.7933C15.6668 13.9333 13.9335 15.6666 11.7935 15.6666H6.20683C4.06683 15.6666 2.3335 13.9333 2.3335 11.7933V6.20659C2.3335 4.54659 3.0135 3.33993 4.22016 2.75326C4.66016 2.53993 5.16683 2.87326 5.16683 3.35993V9.27993C5.16683 10.0733 5.4735 10.7066 6.02683 11.0266C6.58683 11.3399 7.2935 11.2733 8.0135 10.8399L8.88016 10.3199C8.9335 10.2933 9.06683 10.2933 9.10683 10.3133L9.98683 10.8399C10.4668 11.1266 10.8802 11.2199 11.2135 11.2199C11.5602 11.2199 11.8268 11.1133 11.9868 11.0199C12.5268 10.7066 12.8335 10.0733 12.8335 9.27993V3.35993C12.8335 2.87326 13.3468 2.53993 13.7802 2.75326C14.9868 3.33993 15.6668 4.54659 15.6668 6.20659Z" fill="url(#paint0_linear_505_423)"/>
<path d="M11.1668 2.33325C11.5335 2.33325 11.8335 2.63325 11.8335 2.99992V9.27992C11.8335 9.70658 11.7068 10.0266 11.4868 10.1533C11.2602 10.2866 10.9002 10.2199 10.5002 9.97992L9.62016 9.45325C9.28016 9.24659 8.72016 9.24659 8.38016 9.45325L7.50016 9.97992C7.10016 10.2199 6.74016 10.2799 6.5135 10.1533C6.2935 10.0266 6.16683 9.70658 6.16683 9.27992V2.99992C6.16683 2.63325 6.46683 2.33325 6.8335 2.33325H11.1668Z" fill="url(#paint1_linear_505_423)"/>
<defs>
<linearGradient id="paint0_linear_505_423" x1="14.4168" y1="14.4166" x2="4.00016" y2="3.99993" gradientUnits="userSpaceOnUse">
<stop offset="0.0470596" stop-color="#69BEFF"/>
<stop offset="0.238821" stop-color="#696EFF"/>
<stop offset="0.5" stop-color="#3A3EC6"/>
<stop offset="0.5" stop-color="#FBCBFF"/>
<stop offset="0.875468" stop-color="#696EFF"/>
</linearGradient>
<linearGradient id="paint1_linear_505_423" x1="14.4168" y1="14.4166" x2="4.00016" y2="3.99993" gradientUnits="userSpaceOnUse">
<stop offset="0.0470596" stop-color="#69BEFF"/>
<stop offset="0.238821" stop-color="#696EFF"/>
<stop offset="0.5" stop-color="#3A3EC6"/>
<stop offset="0.5" stop-color="#FBCBFF"/>
<stop offset="0.875468" stop-color="#696EFF"/>
</linearGradient>
</defs>
</svg>
