<svg width="16" height="16" viewBox="0 0 16 16" fill="none" xmlns="http://www.w3.org/2000/svg">
<g clip-path="url(#clip0_505_403)">
<path d="M10.7927 1.33325H5.20602C3.06602 1.33325 1.33268 3.06659 1.33268 5.20659V6.83325C1.33268 7.19992 1.63268 7.49992 1.99935 7.49992H13.9993C14.366 7.49992 14.666 7.19992 14.666 6.83325V5.20659C14.666 3.06659 12.9327 1.33325 10.7927 1.33325ZM4.49935 5.49992C4.49935 5.77325 4.27268 5.99992 3.99935 5.99992C3.72602 5.99992 3.49935 5.77325 3.49935 5.49992V4.16659C3.49935 3.89325 3.72602 3.66659 3.99935 3.66659C4.27268 3.66659 4.49935 3.89325 4.49935 4.16659V5.49992ZM7.16602 5.49992C7.16602 5.77325 6.93935 5.99992 6.66602 5.99992C6.39268 5.99992 6.16602 5.77325 6.16602 5.49992V4.16659C6.16602 3.89325 6.39268 3.66659 6.66602 3.66659C6.93935 3.66659 7.16602 3.89325 7.16602 4.16659V5.49992ZM11.9993 5.33325H9.33268C9.05935 5.33325 8.83268 5.10659 8.83268 4.83325C8.83268 4.55992 9.05935 4.33325 9.33268 4.33325H11.9993C12.2727 4.33325 12.4993 4.55992 12.4993 4.83325C12.4993 5.10659 12.2727 5.33325 11.9993 5.33325Z" fill="url(#paint0_linear_505_403)"/>
<path d="M1.33252 10.7932C1.33252 12.9332 3.06585 14.6666 5.20585 14.6666H10.7859C12.9325 14.6666 14.6659 12.9332 14.6659 10.7932V9.16658C14.6659 8.79991 14.3659 8.49991 13.9992 8.49991H1.99919C1.63252 8.49991 1.33252 8.79991 1.33252 9.16658V10.7932ZM9.33252 10.8332H11.9992C12.2725 10.8332 12.4992 11.0599 12.4992 11.3332C12.4992 11.6066 12.2725 11.8332 11.9992 11.8332H9.33252C9.05919 11.8332 8.83252 11.6066 8.83252 11.3332C8.83252 11.0599 9.05919 10.8332 9.33252 10.8332ZM6.16585 10.6666C6.16585 10.3932 6.39252 10.1666 6.66585 10.1666C6.93919 10.1666 7.16585 10.3932 7.16585 10.6666V11.9999C7.16585 12.2732 6.93919 12.4999 6.66585 12.4999C6.39252 12.4999 6.16585 12.2732 6.16585 11.9999V10.6666ZM3.49919 10.6666C3.49919 10.3932 3.72585 10.1666 3.99919 10.1666C4.27252 10.1666 4.49919 10.3932 4.49919 10.6666V11.9999C4.49919 12.2732 4.27252 12.4999 3.99919 12.4999C3.72585 12.4999 3.49919 12.2732 3.49919 11.9999V10.6666Z" fill="url(#paint1_linear_505_403)"/>
</g>
<defs>
<linearGradient id="paint0_linear_505_403" x1="13.416" y1="13.4166" x2="2.99934" y2="2.99978" gradientUnits="userSpaceOnUse">
<stop offset="0.0470596" stop-color="#69BEFF"/>
<stop offset="0.238821" stop-color="#696EFF"/>
<stop offset="0.5" stop-color="#3A3EC6"/>
<stop offset="0.5" stop-color="#FBCBFF"/>
<stop offset="0.875468" stop-color="#696EFF"/>
</linearGradient>
<linearGradient id="paint1_linear_505_403" x1="13.416" y1="13.4166" x2="2.99934" y2="2.99978" gradientUnits="userSpaceOnUse">
<stop offset="0.0470596" stop-color="#69BEFF"/>
<stop offset="0.238821" stop-color="#696EFF"/>
<stop offset="0.5" stop-color="#3A3EC6"/>
<stop offset="0.5" stop-color="#FBCBFF"/>
<stop offset="0.875468" stop-color="#696EFF"/>
</linearGradient>
<clipPath id="clip0_505_403">
<rect width="16" height="16" fill="white"/>
</clipPath>
</defs>
</svg>
