<svg width="26" height="26" viewBox="0 0 26 26" fill="none" xmlns="http://www.w3.org/2000/svg">
<path d="M12.9998 2.1665C7.03067 2.1665 2.1665 7.03067 2.1665 12.9998C2.1665 18.969 7.03067 23.8332 12.9998 23.8332C18.969 23.8332 23.8332 18.969 23.8332 12.9998C23.8332 7.03067 18.969 2.1665 12.9998 2.1665ZM16.0223 13.574L12.1982 17.3982C12.0357 17.5607 11.8298 17.6365 11.624 17.6365C11.4182 17.6365 11.2123 17.5607 11.0498 17.3982C10.7357 17.084 10.7357 16.564 11.0498 16.2498L14.2998 12.9998L11.0498 9.74984C10.7357 9.43567 10.7357 8.91567 11.0498 8.6015C11.364 8.28734 11.884 8.28734 12.1982 8.6015L16.0223 12.4257C16.3473 12.7398 16.3473 13.2598 16.0223 13.574Z" fill="url(#paint0_linear_522_966)"/>
<defs>
<linearGradient id="paint0_linear_522_966" x1="2.1665" y1="12.9998" x2="23.8332" y2="12.9998" gradientUnits="userSpaceOnUse">
<stop stop-color="#696EFF"/>
<stop offset="1" stop-color="#F8ACFF"/>
</linearGradient>
</defs>
</svg>
