<svg width="16" height="16" viewBox="0 0 16 16" fill="none" xmlns="http://www.w3.org/2000/svg">
<g clip-path="url(#clip0_552_2966)">
<path d="M7.99967 15.1668C4.04634 15.1668 0.833008 11.9535 0.833008 8.00016C0.833008 4.04683 4.04634 0.833496 7.99967 0.833496C11.953 0.833496 15.1663 4.04683 15.1663 8.00016C15.1663 11.9535 11.953 15.1668 7.99967 15.1668ZM7.99967 1.8335C4.59967 1.8335 1.83301 4.60016 1.83301 8.00016C1.83301 11.4002 4.59967 14.1668 7.99967 14.1668C11.3997 14.1668 14.1663 11.4002 14.1663 8.00016C14.1663 4.60016 11.3997 1.8335 7.99967 1.8335Z" fill="url(#paint0_linear_552_2966)"/>
<path d="M7.99978 10.0068C7.87311 10.0068 7.74645 9.96015 7.64645 9.86015L5.29311 7.50682C5.09978 7.31348 5.09978 6.99348 5.29311 6.80015C5.48645 6.60682 5.80645 6.60682 5.99978 6.80015L7.99978 8.80015L9.99978 6.80015C10.1931 6.60682 10.5131 6.60682 10.7064 6.80015C10.8998 6.99348 10.8998 7.31348 10.7064 7.50682L8.35311 9.86015C8.25311 9.96015 8.12645 10.0068 7.99978 10.0068Z" fill="url(#paint1_linear_552_2966)"/>
</g>
<defs>
<linearGradient id="paint0_linear_552_2966" x1="0.833008" y1="8.00016" x2="15.1663" y2="8.00016" gradientUnits="userSpaceOnUse">
<stop stop-color="#696EFF"/>
<stop offset="1" stop-color="#F8ACFF"/>
</linearGradient>
<linearGradient id="paint1_linear_552_2966" x1="0.833008" y1="8.00016" x2="15.1663" y2="8.00016" gradientUnits="userSpaceOnUse">
<stop stop-color="#696EFF"/>
<stop offset="1" stop-color="#F8ACFF"/>
</linearGradient>
<clipPath id="clip0_552_2966">
<rect width="16" height="16" fill="white"/>
</clipPath>
</defs>
</svg>
