<svg width="24" height="24" viewBox="0 0 24 24" fill="none" xmlns="http://www.w3.org/2000/svg">
<path fill-rule="evenodd" clip-rule="evenodd" d="M5.90533 3.90533C5.18991 4.62075 4.75 5.67044 4.75 7V17C4.75 18.3296 5.18991 19.3793 5.90533 20.0947C6.62075 20.8101 7.67044 21.25 9 21.25H16C17.3296 21.25 18.3793 20.8101 19.0947 20.0947C19.8101 19.3793 20.25 18.3296 20.25 17V7C20.25 5.67044 19.8101 4.62075 19.0947 3.90533C18.3793 3.18991 17.3296 2.75 16 2.75H9C7.67044 2.75 6.62075 3.18991 5.90533 3.90533ZM4.84467 2.84467C5.87925 1.81009 7.32956 1.25 9 1.25H16C17.6704 1.25 19.1207 1.81009 20.1553 2.84467C21.1899 3.87925 21.75 5.32956 21.75 7V17C21.75 18.6704 21.1899 20.1207 20.1553 21.1553C19.1207 22.1899 17.6704 22.75 16 22.75H9C7.32956 22.75 5.87925 22.1899 4.84467 21.1553C3.81009 20.1207 3.25 18.6704 3.25 17V7C3.25 5.32956 3.81009 3.87925 4.84467 2.84467Z" fill="url(#paint0_linear_505_24)" fill-opacity="0.5"/>
<path fill-rule="evenodd" clip-rule="evenodd" d="M3.25 15C3.25 14.5858 3.58579 14.25 4 14.25H21C21.4142 14.25 21.75 14.5858 21.75 15C21.75 15.4142 21.4142 15.75 21 15.75H4C3.58579 15.75 3.25 15.4142 3.25 15Z" fill="url(#paint1_linear_505_24)" fill-opacity="0.5"/>
<path fill-rule="evenodd" clip-rule="evenodd" d="M6.25 12C6.25 11.5858 6.58579 11.25 7 11.25H8C8.41421 11.25 8.75 11.5858 8.75 12C8.75 12.4142 8.41421 12.75 8 12.75H7C6.58579 12.75 6.25 12.4142 6.25 12Z" fill="url(#paint2_linear_505_24)" fill-opacity="0.5"/>
<path fill-rule="evenodd" clip-rule="evenodd" d="M6.25 9.5C6.25 9.08579 6.58579 8.75 7 8.75H8C8.41421 8.75 8.75 9.08579 8.75 9.5C8.75 9.91421 8.41421 10.25 8 10.25H7C6.58579 10.25 6.25 9.91421 6.25 9.5Z" fill="url(#paint3_linear_505_24)" fill-opacity="0.5"/>
<path fill-rule="evenodd" clip-rule="evenodd" d="M6.25 7C6.25 6.58579 6.58579 6.25 7 6.25H8C8.41421 6.25 8.75 6.58579 8.75 7C8.75 7.41421 8.41421 7.75 8 7.75H7C6.58579 7.75 6.25 7.41421 6.25 7Z" fill="url(#paint4_linear_505_24)" fill-opacity="0.5"/>
<path fill-rule="evenodd" clip-rule="evenodd" d="M15.4946 18.25C15.4946 17.6977 15.9423 17.25 16.4946 17.25H16.5036C17.0559 17.25 17.5036 17.6977 17.5036 18.25C17.5036 18.8023 17.0559 19.25 16.5036 19.25H16.4946C15.9423 19.25 15.4946 18.8023 15.4946 18.25Z" fill="url(#paint5_linear_505_24)" fill-opacity="0.5"/>
<defs>
<linearGradient id="paint0_linear_505_24" x1="3.25" y1="12" x2="21.75" y2="12" gradientUnits="userSpaceOnUse">
<stop stop-color="#696EFF"/>
<stop offset="1" stop-color="#F8ACFF"/>
</linearGradient>
<linearGradient id="paint1_linear_505_24" x1="3.25" y1="15" x2="21.75" y2="15" gradientUnits="userSpaceOnUse">
<stop stop-color="#696EFF"/>
<stop offset="1" stop-color="#F8ACFF"/>
</linearGradient>
<linearGradient id="paint2_linear_505_24" x1="6.25" y1="12" x2="8.75" y2="12" gradientUnits="userSpaceOnUse">
<stop stop-color="#696EFF"/>
<stop offset="1" stop-color="#F8ACFF"/>
</linearGradient>
<linearGradient id="paint3_linear_505_24" x1="6.25" y1="9.5" x2="8.75" y2="9.5" gradientUnits="userSpaceOnUse">
<stop stop-color="#696EFF"/>
<stop offset="1" stop-color="#F8ACFF"/>
</linearGradient>
<linearGradient id="paint4_linear_505_24" x1="6.25" y1="7" x2="8.75" y2="7" gradientUnits="userSpaceOnUse">
<stop stop-color="#696EFF"/>
<stop offset="1" stop-color="#F8ACFF"/>
</linearGradient>
<linearGradient id="paint5_linear_505_24" x1="15.4946" y1="18.25" x2="17.5036" y2="18.25" gradientUnits="userSpaceOnUse">
<stop stop-color="#696EFF"/>
<stop offset="1" stop-color="#F8ACFF"/>
</linearGradient>
</defs>
</svg>
