<svg width="16" height="16" viewBox="0 0 16 16" fill="none" xmlns="http://www.w3.org/2000/svg">
<g clip-path="url(#clip0_505_375)">
<path d="M10.7935 1.33325H5.20683C3.06683 1.33325 1.3335 3.06659 1.3335 5.20659V6.83325C1.3335 7.19992 1.6335 7.49992 2.00016 7.49992H14.0002C14.3668 7.49992 14.6668 7.19992 14.6668 6.83325V5.20659C14.6668 3.06659 12.9335 1.33325 10.7935 1.33325ZM4.50016 5.49992C4.50016 5.77325 4.2735 5.99992 4.00016 5.99992C3.72683 5.99992 3.50016 5.77325 3.50016 5.49992V4.16659C3.50016 3.89325 3.72683 3.66659 4.00016 3.66659C4.2735 3.66659 4.50016 3.89325 4.50016 4.16659V5.49992ZM7.16683 5.49992C7.16683 5.77325 6.94016 5.99992 6.66683 5.99992C6.3935 5.99992 6.16683 5.77325 6.16683 5.49992V4.16659C6.16683 3.89325 6.3935 3.66659 6.66683 3.66659C6.94016 3.66659 7.16683 3.89325 7.16683 4.16659V5.49992ZM12.0002 5.33325H9.3335C9.06016 5.33325 8.8335 5.10659 8.8335 4.83325C8.8335 4.55992 9.06016 4.33325 9.3335 4.33325H12.0002C12.2735 4.33325 12.5002 4.55992 12.5002 4.83325C12.5002 5.10659 12.2735 5.33325 12.0002 5.33325Z" fill="url(#paint0_linear_505_375)"/>
<path d="M1.3335 10.7933C1.3335 12.9333 3.06683 14.6667 5.20683 14.6667H10.7868C12.9335 14.6667 14.6668 12.9333 14.6668 10.7933V9.16667C14.6668 8.8 14.3668 8.5 14.0002 8.5H2.00016C1.6335 8.5 1.3335 8.8 1.3335 9.16667V10.7933ZM9.3335 10.8333H12.0002C12.2735 10.8333 12.5002 11.06 12.5002 11.3333C12.5002 11.6067 12.2735 11.8333 12.0002 11.8333H9.3335C9.06016 11.8333 8.8335 11.6067 8.8335 11.3333C8.8335 11.06 9.06016 10.8333 9.3335 10.8333ZM6.16683 10.6667C6.16683 10.3933 6.3935 10.1667 6.66683 10.1667C6.94016 10.1667 7.16683 10.3933 7.16683 10.6667V12C7.16683 12.2733 6.94016 12.5 6.66683 12.5C6.3935 12.5 6.16683 12.2733 6.16683 12V10.6667ZM3.50016 10.6667C3.50016 10.3933 3.72683 10.1667 4.00016 10.1667C4.2735 10.1667 4.50016 10.3933 4.50016 10.6667V12C4.50016 12.2733 4.2735 12.5 4.00016 12.5C3.72683 12.5 3.50016 12.2733 3.50016 12V10.6667Z" fill="url(#paint1_linear_505_375)"/>
</g>
<defs>
<linearGradient id="paint0_linear_505_375" x1="1.3335" y1="4.41659" x2="14.6668" y2="4.41659" gradientUnits="userSpaceOnUse">
<stop stop-color="#696EFF"/>
<stop offset="1" stop-color="#F8ACFF"/>
</linearGradient>
<linearGradient id="paint1_linear_505_375" x1="1.3335" y1="11.5833" x2="14.6668" y2="11.5833" gradientUnits="userSpaceOnUse">
<stop stop-color="#696EFF"/>
<stop offset="1" stop-color="#F8ACFF"/>
</linearGradient>
<clipPath id="clip0_505_375">
<rect width="16" height="16" fill="white"/>
</clipPath>
</defs>
</svg>
