<svg width="32" height="32" viewBox="0 0 32 32" fill="none" xmlns="http://www.w3.org/2000/svg">
<path fill-rule="evenodd" clip-rule="evenodd" d="M10.0146 0.25C10.4289 0.25 10.7646 0.585786 10.7646 1V3.31517C11.2845 3.271 11.8297 3.25 12.4 3.25H15.25V1C15.25 0.585786 15.5858 0.25 16 0.25C16.4142 0.25 16.75 0.585786 16.75 1V3.25H19.6C20.1756 3.25 20.7258 3.2714 21.25 3.31642V1C21.25 0.585786 21.5858 0.25 22 0.25C22.4142 0.25 22.75 0.585786 22.75 1V3.52565C24.3243 3.84158 25.606 4.44535 26.5803 5.41967C27.5546 6.39399 28.1584 7.67567 28.4743 9.25H31C31.4142 9.25 31.75 9.58579 31.75 10C31.75 10.4142 31.4142 10.75 31 10.75H28.6836C28.7286 11.2742 28.75 11.8244 28.75 12.4V15.25H31C31.4142 15.25 31.75 15.5858 31.75 16C31.75 16.4142 31.4142 16.75 31 16.75H28.75V19.6C28.75 20.1756 28.7286 20.7258 28.6836 21.25H31C31.4142 21.25 31.75 21.5858 31.75 22C31.75 22.4142 31.4142 22.75 31 22.75H28.4743C28.1584 24.3243 27.5546 25.606 26.5803 26.5803C25.606 27.5546 24.3243 28.1584 22.75 28.4743V31C22.75 31.4142 22.4142 31.75 22 31.75C21.5858 31.75 21.25 31.4142 21.25 31V28.6836C20.7258 28.7286 20.1756 28.75 19.6 28.75H16.7646V31C16.7646 31.4142 16.4289 31.75 16.0146 31.75C15.6004 31.75 15.2646 31.4142 15.2646 31V28.75H12.4C11.8297 28.75 11.2845 28.729 10.7646 28.6848V31C10.7646 31.4142 10.4289 31.75 10.0146 31.75C9.60044 31.75 9.26465 31.4142 9.26465 31V28.4773C7.68362 28.1622 6.39701 27.5577 5.41967 26.5803C4.44535 25.606 3.84158 24.3243 3.52565 22.75H1C0.585786 22.75 0.25 22.4142 0.25 22C0.25 21.5858 0.585786 21.25 1 21.25H3.31642C3.2714 20.7258 3.25 20.1756 3.25 19.6V16.75H1C0.585786 16.75 0.25 16.4142 0.25 16C0.25 15.5858 0.585786 15.25 1 15.25H3.25V12.4C3.25 11.8244 3.2714 11.2742 3.31642 10.75H1C0.585786 10.75 0.25 10.4142 0.25 10C0.25 9.58579 0.585786 9.25 1 9.25H3.52565C3.84158 7.67567 4.44535 6.39399 5.41967 5.41967C6.39701 4.44233 7.68362 3.83784 9.26465 3.52272V1C9.26465 0.585786 9.60044 0.25 10.0146 0.25ZM4.75 19.6C4.75 22.526 5.3398 24.3791 6.48033 25.5197C7.62086 26.6602 9.47397 27.25 12.4 27.25H19.6C22.526 27.25 24.3791 26.6602 25.5197 25.5197C26.6602 24.3791 27.25 22.526 27.25 19.6V12.4C27.25 9.47397 26.6602 7.62086 25.5197 6.48033C24.3791 5.3398 22.526 4.75 19.6 4.75H12.4C9.47397 4.75 7.62086 5.3398 6.48033 6.48033C5.3398 7.62086 4.75 9.47397 4.75 12.4V19.6ZM9.18842 9.18842C10.2416 8.1352 11.801 7.75 13.75 7.75H18.25C20.199 7.75 21.7584 8.1352 22.8116 9.18842C23.8648 10.2416 24.25 11.801 24.25 13.75V18.25C24.25 20.199 23.8648 21.7584 22.8116 22.8116C21.7584 23.8648 20.199 24.25 18.25 24.25H13.75C11.801 24.25 10.2416 23.8648 9.18842 22.8116C8.1352 21.7584 7.75 20.199 7.75 18.25V13.75C7.75 11.801 8.1352 10.2416 9.18842 9.18842ZM10.2491 10.2491C9.6148 10.8834 9.25 11.949 9.25 13.75V18.25C9.25 20.051 9.6148 21.1166 10.2491 21.7509C10.8834 22.3852 11.949 22.75 13.75 22.75H18.25C20.051 22.75 21.1166 22.3852 21.7509 21.7509C22.3852 21.1166 22.75 20.051 22.75 18.25V13.75C22.75 11.949 22.3852 10.8834 21.7509 10.2491C21.1166 9.6148 20.051 9.25 18.25 9.25H13.75C11.949 9.25 10.8834 9.6148 10.2491 10.2491ZM16.3733 11.8993C16.7326 12.1053 16.857 12.5636 16.651 12.923L15.3172 15.25H16.8403C17.3183 15.25 17.8483 15.4272 18.1305 15.9197C18.4116 16.4103 18.2982 16.9549 18.0597 17.3652C18.0592 17.3661 18.0587 17.367 18.0582 17.3679L16.651 19.823C16.445 20.1823 15.9867 20.3067 15.6274 20.1007C15.268 19.8947 15.1436 19.4364 15.3496 19.0771L16.6834 16.75H15.1603C14.6824 16.75 14.1524 16.5729 13.8702 16.0804C13.5891 15.5898 13.7024 15.0453 13.9408 14.635L15.3496 12.1771C15.5556 11.8177 16.0139 11.6933 16.3733 11.8993Z" fill="url(#paint0_linear_505_487)" fill-opacity="0.5"/>
<defs>
<linearGradient id="paint0_linear_505_487" x1="0.25" y1="16" x2="31.75" y2="16" gradientUnits="userSpaceOnUse">
<stop stop-color="#696EFF"/>
<stop offset="1" stop-color="#F8ACFF"/>
</linearGradient>
</defs>
</svg>
