<svg width="16" height="16" viewBox="0 0 16 16" fill="none" xmlns="http://www.w3.org/2000/svg">
<g clip-path="url(#clip0_522_1182)">
<path d="M10.7935 1.3335H5.20683C2.78016 1.3335 1.3335 2.78016 1.3335 5.20683V10.7868C1.3335 13.2202 2.78016 14.6668 5.20683 14.6668H10.7868C13.2135 14.6668 14.6602 13.2202 14.6602 10.7935V5.20683C14.6668 2.78016 13.2202 1.3335 10.7935 1.3335ZM5.1135 3.66683C5.1135 3.3935 5.34016 3.16683 5.6135 3.16683C5.88683 3.16683 6.1135 3.3935 6.1135 3.66683V6.26683C6.1135 6.54016 5.88683 6.76683 5.6135 6.76683C5.34016 6.76683 5.1135 6.54016 5.1135 6.26683V3.66683ZM6.1135 11.0402V12.3335C6.1135 12.6068 5.88683 12.8335 5.6135 12.8335C5.34016 12.8335 5.1135 12.6068 5.1135 12.3335V11.0402C4.3535 10.8202 3.80016 10.1268 3.80016 9.30016C3.80016 8.30016 4.6135 7.48016 5.6135 7.48016C6.6135 7.48016 7.4335 8.2935 7.4335 9.30016C7.4335 10.1268 6.8735 10.8202 6.1135 11.0402ZM10.8868 12.3335C10.8868 12.6068 10.6602 12.8335 10.3868 12.8335C10.1135 12.8335 9.88683 12.6068 9.88683 12.3335V9.7335C9.88683 9.46016 10.1135 9.2335 10.3868 9.2335C10.6602 9.2335 10.8868 9.46016 10.8868 9.7335V12.3335ZM10.3868 8.5135C9.38683 8.5135 8.56683 7.70016 8.56683 6.6935C8.56683 5.86683 9.12683 5.1735 9.88683 4.9535V3.66683C9.88683 3.3935 10.1135 3.16683 10.3868 3.16683C10.6602 3.16683 10.8868 3.3935 10.8868 3.66683V4.96016C11.6468 5.18016 12.2002 5.8735 12.2002 6.70016C12.2002 7.70016 11.3868 8.5135 10.3868 8.5135Z" fill="url(#paint0_linear_522_1182)"/>
</g>
<defs>
<linearGradient id="paint0_linear_522_1182" x1="1.3335" y1="8.00016" x2="14.6602" y2="8.00016" gradientUnits="userSpaceOnUse">
<stop stop-color="#696EFF"/>
<stop offset="1" stop-color="#F8ACFF"/>
</linearGradient>
<clipPath id="clip0_522_1182">
<rect width="16" height="16" fill="white"/>
</clipPath>
</defs>
</svg>
