<svg width="16" height="16" viewBox="0 0 16 16" fill="none" xmlns="http://www.w3.org/2000/svg">
<g clip-path="url(#clip0_522_78)">
<path d="M10.7935 1.3335H5.20683C2.78016 1.3335 1.3335 2.78016 1.3335 5.20683V10.7868C1.3335 13.2202 2.78016 14.6668 5.20683 14.6668H10.7868C13.2135 14.6668 14.6602 13.2202 14.6602 10.7935V5.20683C14.6668 2.78016 13.2202 1.3335 10.7935 1.3335ZM10.5002 10.5002H5.50016C5.22683 10.5002 5.00016 10.2735 5.00016 10.0002C5.00016 9.72683 5.22683 9.50016 5.50016 9.50016H10.5002C10.7735 9.50016 11.0002 9.72683 11.0002 10.0002C11.0002 10.2735 10.7735 10.5002 10.5002 10.5002ZM10.5002 6.50016H5.50016C5.22683 6.50016 5.00016 6.2735 5.00016 6.00016C5.00016 5.72683 5.22683 5.50016 5.50016 5.50016H10.5002C10.7735 5.50016 11.0002 5.72683 11.0002 6.00016C11.0002 6.2735 10.7735 6.50016 10.5002 6.50016Z" fill="url(#paint0_linear_522_78)"/>
</g>
<defs>
<linearGradient id="paint0_linear_522_78" x1="1.3335" y1="8.00016" x2="14.6602" y2="8.00016" gradientUnits="userSpaceOnUse">
<stop stop-color="#696EFF"/>
<stop offset="1" stop-color="#F8ACFF"/>
</linearGradient>
<clipPath id="clip0_522_78">
<rect width="16" height="16" fill="white"/>
</clipPath>
</defs>
</svg>
