<svg width="16" height="16" viewBox="0 0 16 16" fill="none" xmlns="http://www.w3.org/2000/svg">
<g clip-path="url(#clip0_505_318)">
<path d="M12.1798 2.23341C11.8665 2.18675 11.5065 2.16675 10.9998 2.16675H4.99984C4.49984 2.16675 4.13317 2.18675 3.83984 2.22675C1.6065 2.47341 1.1665 3.80008 1.1665 6.00008V10.0001C1.1665 12.2001 1.6065 13.5267 3.81984 13.7667C4.13317 13.8134 4.49317 13.8334 4.99984 13.8334H10.9998C11.4998 13.8334 11.8665 13.8134 12.1598 13.7734C14.3932 13.5267 14.8332 12.2067 14.8332 10.0001V6.00008C14.8332 3.80008 14.3932 2.47341 12.1798 2.23341ZM6.7265 6.00008C7.09984 6.00008 7.39984 6.30008 7.39984 6.66675C7.39984 7.03341 7.09984 7.33341 6.73317 7.33341C6.3665 7.33341 6.0665 7.03341 6.0665 6.66675C6.0665 6.30008 6.35984 6.00008 6.7265 6.00008ZM4.7265 6.00008C5.1065 6.00008 5.39984 6.30008 5.39984 6.66675C5.39984 7.03341 5.09984 7.33341 4.73317 7.33341C4.3665 7.33341 4.0665 7.03341 4.0665 6.66675C4.0665 6.30008 4.35984 6.00008 4.7265 6.00008ZM11.3332 10.8334H4.67984C4.4065 10.8334 4.17317 10.6067 4.17317 10.3334C4.17317 10.0601 4.39317 9.83341 4.6665 9.83341H11.3332C11.6065 9.83341 11.8332 10.0601 11.8332 10.3334C11.8332 10.6067 11.6065 10.8334 11.3332 10.8334ZM11.3332 7.16675H8.99984C8.7265 7.16675 8.49984 6.94008 8.49984 6.66675C8.49984 6.39341 8.7265 6.16675 8.99984 6.16675H11.3332C11.6065 6.16675 11.8332 6.39341 11.8332 6.66675C11.8332 6.94008 11.6065 7.16675 11.3332 7.16675Z" fill="url(#paint0_linear_505_318)"/>
</g>
<defs>
<linearGradient id="paint0_linear_505_318" x1="1.1665" y1="8.00008" x2="14.8332" y2="8.00008" gradientUnits="userSpaceOnUse">
<stop stop-color="#696EFF"/>
<stop offset="1" stop-color="#F8ACFF"/>
</linearGradient>
<clipPath id="clip0_505_318">
<rect width="16" height="16" fill="white"/>
</clipPath>
</defs>
</svg>
