<svg width="36" height="36" viewBox="0 0 36 36" fill="none" xmlns="http://www.w3.org/2000/svg">
<path fill-rule="evenodd" clip-rule="evenodd" d="M10.763 6.88828C9.6501 8.18325 9 9.77813 9 11.475C9 12.6995 9.3356 13.8245 9.92496 14.7889L9.92587 14.7904C11.3668 17.1606 14.3931 18.75 18 18.75C21.6069 18.75 24.6332 17.1606 26.0741 14.7904L26.075 14.7889C26.6644 13.8245 27 12.6995 27 11.475C27 9.38139 26.0225 7.46354 24.407 6.04021C22.7775 4.63277 20.524 3.75 18 3.75C17.9263 3.75 17.8529 3.75075 17.7797 3.75224C15.3439 3.802 13.1742 4.67497 11.5932 6.05503C11.294 6.31585 11.0163 6.59451 10.763 6.88828ZM18 2.25C20.8747 2.25 23.4802 3.25632 25.3905 4.9076L25.3956 4.91204C27.2886 6.57848 28.5 8.88973 28.5 11.475V24.525C28.5 29.7144 23.6971 33.75 18 33.75C12.3029 33.75 7.5 29.7144 7.5 24.525V11.475C7.5 8.63158 8.94194 6.13457 11.1828 4.45802C13.027 3.07054 15.4043 2.25 18 2.25ZM9 16.1063V18.975C9 23.0975 12.8696 26.25 18 26.25C23.1304 26.25 27 23.0975 27 18.975V16.1063C25.1344 18.6957 21.76 20.25 18 20.25C14.24 20.25 10.8656 18.6957 9 16.1063ZM27 23.621C25.1353 26.1952 21.7389 27.75 18 27.75C14.2611 27.75 10.8647 26.1952 9 23.621V24.525C9 28.6956 12.9271 32.25 18 32.25C23.0729 32.25 27 28.6956 27 24.525V23.621Z" fill="url(#paint0_linear_522_1030)" fill-opacity="0.7"/>
<defs>
<linearGradient id="paint0_linear_522_1030" x1="7.5" y1="18" x2="28.5" y2="18" gradientUnits="userSpaceOnUse">
<stop stop-color="#696EFF"/>
<stop offset="1" stop-color="#F8ACFF"/>
</linearGradient>
</defs>
</svg>
