<svg width="16" height="16" viewBox="0 0 16 16" fill="none" xmlns="http://www.w3.org/2000/svg">
<path d="M9.60016 13.8335H6.40016C3.4735 13.8335 2.16683 12.5268 2.16683 9.60016V6.40016C2.16683 3.4735 3.4735 2.16683 6.40016 2.16683H9.60016C12.5268 2.16683 13.8335 3.4735 13.8335 6.40016V9.60016C13.8335 12.5268 12.5268 13.8335 9.60016 13.8335ZM6.40016 3.16683C4.0135 3.16683 3.16683 4.0135 3.16683 6.40016V9.60016C3.16683 11.9868 4.0135 12.8335 6.40016 12.8335H9.60016C11.9868 12.8335 12.8335 11.9868 12.8335 9.60016V6.40016C12.8335 4.0135 11.9868 3.16683 9.60016 3.16683H6.40016Z" fill="white"/>
<path d="M9.00016 11.8335H7.00016C5.06683 11.8335 4.16683 10.9335 4.16683 9.00016V7.00016C4.16683 5.06683 5.06683 4.16683 7.00016 4.16683H9.00016C10.9335 4.16683 11.8335 5.06683 11.8335 7.00016V9.00016C11.8335 10.9335 10.9335 11.8335 9.00016 11.8335ZM7.00016 5.16683C5.6135 5.16683 5.16683 5.6135 5.16683 7.00016V9.00016C5.16683 10.3868 5.6135 10.8335 7.00016 10.8335H9.00016C10.3868 10.8335 10.8335 10.3868 10.8335 9.00016V7.00016C10.8335 5.6135 10.3868 5.16683 9.00016 5.16683H7.00016Z" fill="white"/>
<path d="M5.34016 3.16683C5.06016 3.16683 4.84016 2.94016 4.84016 2.66683V1.3335C4.84016 1.06016 5.06683 0.833496 5.34016 0.833496C5.6135 0.833496 5.84016 1.06016 5.84016 1.3335V2.66683C5.84016 2.94016 5.6135 3.16683 5.34016 3.16683Z" fill="white"/>
<path d="M8.00016 3.16683C7.72683 3.16683 7.50016 2.94016 7.50016 2.66683V1.3335C7.50016 1.06016 7.72683 0.833496 8.00016 0.833496C8.2735 0.833496 8.50016 1.06016 8.50016 1.3335V2.66683C8.50016 2.94016 8.2735 3.16683 8.00016 3.16683Z" fill="white"/>
<path d="M10.6668 3.16683C10.3935 3.16683 10.1668 2.94016 10.1668 2.66683V1.3335C10.1668 1.06016 10.3935 0.833496 10.6668 0.833496C10.9402 0.833496 11.1668 1.06016 11.1668 1.3335V2.66683C11.1668 2.94016 10.9402 3.16683 10.6668 3.16683Z" fill="white"/>
<path d="M14.6668 5.8335H13.3335C13.0602 5.8335 12.8335 5.60683 12.8335 5.3335C12.8335 5.06016 13.0602 4.8335 13.3335 4.8335H14.6668C14.9402 4.8335 15.1668 5.06016 15.1668 5.3335C15.1668 5.60683 14.9468 5.8335 14.6668 5.8335Z" fill="white"/>
<path d="M14.6668 8.50016H13.3335C13.0602 8.50016 12.8335 8.2735 12.8335 8.00016C12.8335 7.72683 13.0602 7.50016 13.3335 7.50016H14.6668C14.9402 7.50016 15.1668 7.72683 15.1668 8.00016C15.1668 8.2735 14.9468 8.50016 14.6668 8.50016Z" fill="white"/>
<path d="M14.6668 11.1668H13.3335C13.0602 11.1668 12.8335 10.9402 12.8335 10.6668C12.8335 10.3935 13.0602 10.1668 13.3335 10.1668H14.6668C14.9402 10.1668 15.1668 10.3935 15.1668 10.6668C15.1668 10.9402 14.9468 11.1668 14.6668 11.1668Z" fill="white"/>
<path d="M10.6668 15.1668C10.3935 15.1668 10.1668 14.9402 10.1668 14.6668V13.3335C10.1668 13.0602 10.3935 12.8335 10.6668 12.8335C10.9402 12.8335 11.1668 13.0602 11.1668 13.3335V14.6668C11.1668 14.9402 10.9402 15.1668 10.6668 15.1668Z" fill="white"/>
<path d="M8.00683 15.1668C7.7335 15.1668 7.50683 14.9402 7.50683 14.6668V13.3335C7.50683 13.0602 7.7335 12.8335 8.00683 12.8335C8.28016 12.8335 8.50683 13.0602 8.50683 13.3335V14.6668C8.50683 14.9402 8.28016 15.1668 8.00683 15.1668Z" fill="white"/>
<path d="M5.34016 15.1668C5.06683 15.1668 4.84016 14.9402 4.84016 14.6668V13.3335C4.84016 13.0602 5.06683 12.8335 5.34016 12.8335C5.6135 12.8335 5.84016 13.0602 5.84016 13.3335V14.6668C5.84016 14.9402 5.6135 15.1668 5.34016 15.1668Z" fill="white"/>
<path d="M2.66683 5.8335H1.3335C1.06016 5.8335 0.833496 5.6135 0.833496 5.3335C0.833496 5.0535 1.06016 4.8335 1.3335 4.8335H2.66683C2.94016 4.8335 3.16683 5.06016 3.16683 5.3335C3.16683 5.60683 2.94683 5.8335 2.66683 5.8335Z" fill="white"/>
<path d="M2.66683 8.50016H1.3335C1.06016 8.50016 0.833496 8.2735 0.833496 8.00016C0.833496 7.72683 1.06016 7.50016 1.3335 7.50016H2.66683C2.94016 7.50016 3.16683 7.72683 3.16683 8.00016C3.16683 8.2735 2.94683 8.50016 2.66683 8.50016Z" fill="white"/>
<path d="M2.66683 11.1668H1.3335C1.06016 11.1668 0.833496 10.9402 0.833496 10.6668C0.833496 10.3935 1.06016 10.1668 1.3335 10.1668H2.66683C2.94016 10.1668 3.16683 10.3935 3.16683 10.6668C3.16683 10.9402 2.94683 11.1668 2.66683 11.1668Z" fill="white"/>
</svg>
