<svg width="26" height="26" viewBox="0 0 26 26" fill="none" xmlns="http://www.w3.org/2000/svg">
<g clip-path="url(#clip0_522_2091)">
<path d="M17.539 2.1665H8.46067C4.98317 2.1665 2.1665 4.98317 2.1665 8.46067V11.104C2.1665 11.6998 2.654 12.1873 3.24984 12.1873H22.7498C23.3457 12.1873 23.8332 11.6998 23.8332 11.104V8.46067C23.8332 4.98317 21.0165 2.1665 17.539 2.1665ZM7.31234 8.93734C7.31234 9.3815 6.944 9.74984 6.49984 9.74984C6.05567 9.74984 5.68734 9.3815 5.68734 8.93734V6.77067C5.68734 6.3265 6.05567 5.95817 6.49984 5.95817C6.944 5.95817 7.31234 6.3265 7.31234 6.77067V8.93734ZM11.6457 8.93734C11.6457 9.3815 11.2773 9.74984 10.8332 9.74984C10.389 9.74984 10.0207 9.3815 10.0207 8.93734V6.77067C10.0207 6.3265 10.389 5.95817 10.8332 5.95817C11.2773 5.95817 11.6457 6.3265 11.6457 6.77067V8.93734ZM19.4998 8.6665H15.1665C14.7223 8.6665 14.354 8.29817 14.354 7.854C14.354 7.40984 14.7223 7.0415 15.1665 7.0415H19.4998C19.944 7.0415 20.3123 7.40984 20.3123 7.854C20.3123 8.29817 19.944 8.6665 19.4998 8.6665Z" fill="url(#paint0_linear_522_2091)"/>
<path d="M2.16602 17.539C2.16602 21.0165 4.98268 23.8332 8.46018 23.8332H17.5277C21.016 23.8332 23.8327 21.0165 23.8327 17.539V14.8957C23.8327 14.2998 23.3452 13.8123 22.7493 13.8123H3.24935C2.65352 13.8123 2.16602 14.2998 2.16602 14.8957V17.539ZM15.166 17.604H19.4993C19.9435 17.604 20.3118 17.9723 20.3118 18.4165C20.3118 18.8607 19.9435 19.229 19.4993 19.229H15.166C14.7218 19.229 14.3535 18.8607 14.3535 18.4165C14.3535 17.9723 14.7218 17.604 15.166 17.604ZM10.0202 17.3332C10.0202 16.889 10.3885 16.5207 10.8327 16.5207C11.2768 16.5207 11.6452 16.889 11.6452 17.3332V19.4998C11.6452 19.944 11.2768 20.3123 10.8327 20.3123C10.3885 20.3123 10.0202 19.944 10.0202 19.4998V17.3332ZM5.68685 17.3332C5.68685 16.889 6.05518 16.5207 6.49935 16.5207C6.94352 16.5207 7.31185 16.889 7.31185 17.3332V19.4998C7.31185 19.944 6.94352 20.3123 6.49935 20.3123C6.05518 20.3123 5.68685 19.944 5.68685 19.4998V17.3332Z" fill="url(#paint1_linear_522_2091)"/>
</g>
<defs>
<linearGradient id="paint0_linear_522_2091" x1="21.8019" y1="21.8019" x2="4.87478" y2="4.87447" gradientUnits="userSpaceOnUse">
<stop offset="0.0470596" stop-color="#69BEFF"/>
<stop offset="0.238821" stop-color="#696EFF"/>
<stop offset="0.5" stop-color="#3A3EC6"/>
<stop offset="0.5" stop-color="#FBCBFF"/>
<stop offset="0.875468" stop-color="#696EFF"/>
</linearGradient>
<linearGradient id="paint1_linear_522_2091" x1="21.8019" y1="21.8019" x2="4.87478" y2="4.87447" gradientUnits="userSpaceOnUse">
<stop offset="0.0470596" stop-color="#69BEFF"/>
<stop offset="0.238821" stop-color="#696EFF"/>
<stop offset="0.5" stop-color="#3A3EC6"/>
<stop offset="0.5" stop-color="#FBCBFF"/>
<stop offset="0.875468" stop-color="#696EFF"/>
</linearGradient>
<clipPath id="clip0_522_2091">
<rect width="26" height="26" fill="white"/>
</clipPath>
</defs>
</svg>
