<svg width="16" height="16" viewBox="0 0 16 16" fill="none" xmlns="http://www.w3.org/2000/svg">
<path d="M14 5.1665H2C1.72667 5.1665 1.5 4.93984 1.5 4.6665C1.5 4.39317 1.72667 4.1665 2 4.1665H14C14.2733 4.1665 14.5 4.39317 14.5 4.6665C14.5 4.93984 14.2733 5.1665 14 5.1665Z" fill="#696EFF"/>
<path d="M12 8.49984H4C3.72667 8.49984 3.5 8.27317 3.5 7.99984C3.5 7.7265 3.72667 7.49984 4 7.49984H12C12.2733 7.49984 12.5 7.7265 12.5 7.99984C12.5 8.27317 12.2733 8.49984 12 8.49984Z" fill="#696EFF"/>
<path d="M9.33333 11.8332H6.66667C6.39333 11.8332 6.16667 11.6065 6.16667 11.3332C6.16667 11.0598 6.39333 10.8332 6.66667 10.8332H9.33333C9.60667 10.8332 9.83333 11.0598 9.83333 11.3332C9.83333 11.6065 9.60667 11.8332 9.33333 11.8332Z" fill="#696EFF"/>
</svg>
