<svg width="36" height="36" viewBox="0 0 36 36" fill="none" xmlns="http://www.w3.org/2000/svg">
<path fill-rule="evenodd" clip-rule="evenodd" d="M3 2.25C3.41421 2.25 3.75 2.58579 3.75 3V28.5C3.75 30.5758 5.42421 32.25 7.5 32.25H33C33.4142 32.25 33.75 32.5858 33.75 33C33.75 33.4142 33.4142 33.75 33 33.75H7.5C4.59579 33.75 2.25 31.4042 2.25 28.5V3C2.25 2.58579 2.58579 2.25 3 2.25ZM31.9879 9.93041C32.3025 10.1999 32.3391 10.6733 32.0696 10.9879L25.1696 19.0429L25.1676 19.0452C23.7436 20.6941 21.2137 20.7894 19.6747 19.2503L18.2465 17.8221C17.3307 16.8952 15.8137 16.9544 14.9536 17.9491C14.9532 17.9495 14.9529 17.9499 14.9526 17.9502L8.06967 25.9878C7.80024 26.3024 7.32679 26.3391 7.01217 26.0697C6.69755 25.8002 6.66091 25.3268 6.93033 25.0122L13.8153 16.9722L13.8174 16.9698C15.2369 15.3262 17.7677 15.2052 19.3118 16.7661C19.3124 16.7667 19.313 16.7673 19.3135 16.7679L20.7353 18.1897C21.656 19.1104 23.1754 19.056 24.0316 18.0657C24.0318 18.0654 24.0321 18.0651 24.0324 18.0648L30.9304 10.0121C31.1999 9.6975 31.6733 9.66094 31.9879 9.93041Z" fill="url(#paint0_linear_522_1023)" fill-opacity="0.7"/>
<defs>
<linearGradient id="paint0_linear_522_1023" x1="2.25" y1="18" x2="33.75" y2="18" gradientUnits="userSpaceOnUse">
<stop stop-color="#696EFF"/>
<stop offset="1" stop-color="#F8ACFF"/>
</linearGradient>
</defs>
</svg>
