<svg width="26" height="26" viewBox="0 0 26 26" fill="none" xmlns="http://www.w3.org/2000/svg">
<path d="M22.4355 3.95887C22.4355 3.95887 24.54 3.13825 24.3646 5.1312C24.3062 5.95183 23.78 8.82402 23.3708 11.9307L21.9678 21.1335C21.9678 21.1335 21.8509 22.4816 20.7986 22.7161C19.7463 22.9505 18.1679 21.8955 17.8756 21.661C17.6418 21.4852 13.4912 18.8474 12.0297 17.5579C11.6204 17.2061 11.1528 16.5027 12.0881 15.6821L18.2264 9.82053C18.9279 9.11712 19.6294 7.47587 16.7064 9.46882L8.5221 15.0374C8.5221 15.0374 7.58675 15.6235 5.83299 15.096L2.0331 13.9236C2.0331 13.9236 0.630072 13.0444 3.02691 12.1651C8.87288 9.41016 16.0634 6.59658 22.4355 3.95887Z" fill="url(#paint0_linear_522_2042)"/>
<defs>
<linearGradient id="paint0_linear_522_2042" x1="22.2422" y1="20.9725" x2="7.67377" y2="3.49044" gradientUnits="userSpaceOnUse">
<stop offset="0.0470596" stop-color="#69BEFF"/>
<stop offset="0.238821" stop-color="#696EFF"/>
<stop offset="0.5" stop-color="#3A3EC6"/>
<stop offset="0.5" stop-color="#FBCBFF"/>
<stop offset="0.875468" stop-color="#696EFF"/>
</linearGradient>
</defs>
</svg>
