<svg width="12" height="12" viewBox="0 0 12 12" fill="none" xmlns="http://www.w3.org/2000/svg">
<path d="M6.49997 5.87493C6.40497 5.87493 6.30997 5.83993 6.23497 5.76493C6.08997 5.61993 6.08997 5.37993 6.23497 5.23493L10.335 1.13493C10.48 0.989934 10.72 0.989934 10.865 1.13493C11.01 1.27993 11.01 1.51993 10.865 1.66493L6.76497 5.76493C6.68997 5.83993 6.59497 5.87493 6.49997 5.87493Z" fill="url(#paint0_linear_505_289)"/>
<path d="M11.0003 3.775C10.7953 3.775 10.6253 3.605 10.6253 3.4V1.375H8.60034C8.39534 1.375 8.22534 1.205 8.22534 1C8.22534 0.795 8.39534 0.625 8.60034 0.625H11.0003C11.2053 0.625 11.3753 0.795 11.3753 1V3.4C11.3753 3.605 11.2053 3.775 11.0003 3.775Z" fill="url(#paint1_linear_505_289)"/>
<path d="M7.5 11.375H4.5C1.785 11.375 0.625 10.215 0.625 7.5V4.5C0.625 1.785 1.785 0.625 4.5 0.625H5.5C5.705 0.625 5.875 0.795 5.875 1C5.875 1.205 5.705 1.375 5.5 1.375H4.5C2.195 1.375 1.375 2.195 1.375 4.5V7.5C1.375 9.805 2.195 10.625 4.5 10.625H7.5C9.805 10.625 10.625 9.805 10.625 7.5V6.5C10.625 6.295 10.795 6.125 11 6.125C11.205 6.125 11.375 6.295 11.375 6.5V7.5C11.375 10.215 10.215 11.375 7.5 11.375Z" fill="url(#paint2_linear_505_289)"/>
<defs>
<linearGradient id="paint0_linear_505_289" x1="0.625" y1="6" x2="11.3753" y2="6" gradientUnits="userSpaceOnUse">
<stop stop-color="#696EFF"/>
<stop offset="1" stop-color="#F8ACFF"/>
</linearGradient>
<linearGradient id="paint1_linear_505_289" x1="0.625" y1="6" x2="11.3753" y2="6" gradientUnits="userSpaceOnUse">
<stop stop-color="#696EFF"/>
<stop offset="1" stop-color="#F8ACFF"/>
</linearGradient>
<linearGradient id="paint2_linear_505_289" x1="0.625" y1="6" x2="11.3753" y2="6" gradientUnits="userSpaceOnUse">
<stop stop-color="#696EFF"/>
<stop offset="1" stop-color="#F8ACFF"/>
</linearGradient>
</defs>
</svg>
