<svg width="16" height="16" viewBox="0 0 16 16" fill="none" xmlns="http://www.w3.org/2000/svg">
<g clip-path="url(#clip0_552_2814)">
<path d="M10.793 1.3335H5.20634C2.77967 1.3335 1.33301 2.78016 1.33301 5.20683V10.7868C1.33301 13.2202 2.77967 14.6668 5.20634 14.6668H10.7863C13.213 14.6668 14.6597 13.2202 14.6597 10.7935V5.20683C14.6663 2.78016 13.2197 1.3335 10.793 1.3335ZM5.08634 12.1002C5.08634 12.3735 4.85967 12.6002 4.58634 12.6002C4.31301 12.6002 4.08634 12.3735 4.08634 12.1002V10.7202C4.08634 10.4468 4.31301 10.2202 4.58634 10.2202C4.85967 10.2202 5.08634 10.4468 5.08634 10.7202V12.1002ZM8.49967 12.1002C8.49967 12.3735 8.27301 12.6002 7.99967 12.6002C7.72634 12.6002 7.49967 12.3735 7.49967 12.1002V9.3335C7.49967 9.06016 7.72634 8.8335 7.99967 8.8335C8.27301 8.8335 8.49967 9.06016 8.49967 9.3335V12.1002ZM11.913 12.1002C11.913 12.3735 11.6863 12.6002 11.413 12.6002C11.1397 12.6002 10.913 12.3735 10.913 12.1002V7.9535C10.913 7.68016 11.1397 7.4535 11.413 7.4535C11.6863 7.4535 11.913 7.68016 11.913 7.9535V12.1002ZM11.913 5.84683C11.913 6.12016 11.6863 6.34683 11.413 6.34683C11.1397 6.34683 10.913 6.12016 10.913 5.84683V5.20016C9.21301 6.94683 7.08634 8.18016 4.70634 8.7735C4.66634 8.78683 4.62634 8.78683 4.58634 8.78683C4.35967 8.78683 4.15967 8.6335 4.09967 8.40683C4.03301 8.14016 4.19301 7.86683 4.46634 7.80016C6.71301 7.24016 8.71301 6.06016 10.2997 4.3935H9.46634C9.19301 4.3935 8.96634 4.16683 8.96634 3.8935C8.96634 3.62016 9.19301 3.3935 9.46634 3.3935H11.4197C11.4463 3.3935 11.4663 3.40683 11.493 3.40683C11.5263 3.4135 11.5597 3.4135 11.593 3.42683C11.6263 3.44016 11.653 3.46016 11.6863 3.48016C11.7063 3.4935 11.7263 3.50016 11.7463 3.5135C11.753 3.52016 11.753 3.52683 11.7597 3.52683C11.7863 3.5535 11.8063 3.58016 11.8263 3.60683C11.8463 3.6335 11.8663 3.6535 11.873 3.68016C11.8863 3.70683 11.8863 3.7335 11.893 3.76683C11.8997 3.80016 11.913 3.8335 11.913 3.8735C11.913 3.88016 11.9197 3.88683 11.9197 3.8935V5.84683H11.913Z" fill="url(#paint0_linear_552_2814)"/>
</g>
<defs>
<linearGradient id="paint0_linear_552_2814" x1="1.33301" y1="8.00016" x2="14.6597" y2="8.00016" gradientUnits="userSpaceOnUse">
<stop stop-color="#696EFF"/>
<stop offset="1" stop-color="#F8ACFF"/>
</linearGradient>
<clipPath id="clip0_552_2814">
<rect width="16" height="16" fill="white"/>
</clipPath>
</defs>
</svg>
