<svg width="16" height="16" viewBox="0 0 16 16" fill="none" xmlns="http://www.w3.org/2000/svg">
<g clip-path="url(#clip0_505_59)">
<path d="M11.3332 1.3335H5.33317C3.85984 1.3335 2.6665 2.52683 2.6665 4.00016V8.8335C2.6665 9.20016 2.9665 9.50016 3.33317 9.50016H13.3332C13.6998 9.50016 13.9998 9.20016 13.9998 8.8335V4.00016C13.9998 2.52683 12.8065 1.3335 11.3332 1.3335ZM5.33317 8.50016H4.6665C4.39317 8.50016 4.1665 8.2735 4.1665 8.00016C4.1665 7.72683 4.39317 7.50016 4.6665 7.50016H5.33317C5.6065 7.50016 5.83317 7.72683 5.83317 8.00016C5.83317 8.2735 5.6065 8.50016 5.33317 8.50016ZM5.33317 6.8335H4.6665C4.39317 6.8335 4.1665 6.60683 4.1665 6.3335C4.1665 6.06016 4.39317 5.8335 4.6665 5.8335H5.33317C5.6065 5.8335 5.83317 6.06016 5.83317 6.3335C5.83317 6.60683 5.6065 6.8335 5.33317 6.8335ZM5.33317 5.16683H4.6665C4.39317 5.16683 4.1665 4.94016 4.1665 4.66683C4.1665 4.3935 4.39317 4.16683 4.6665 4.16683H5.33317C5.6065 4.16683 5.83317 4.3935 5.83317 4.66683C5.83317 4.94016 5.6065 5.16683 5.33317 5.16683Z" fill="url(#paint0_linear_505_59)"/>
<path d="M2.6665 11.1668V12.0002C2.6665 13.4735 3.85984 14.6668 5.33317 14.6668H11.3332C12.8065 14.6668 13.9998 13.4735 13.9998 12.0002V11.1668C13.9998 10.8002 13.6998 10.5002 13.3332 10.5002H3.33317C2.9665 10.5002 2.6665 10.8002 2.6665 11.1668ZM11.8065 12.9735C11.6798 13.0935 11.5065 13.1668 11.3332 13.1668C11.1598 13.1668 10.9865 13.0935 10.8598 12.9735C10.7398 12.8468 10.6665 12.6735 10.6665 12.5002C10.6665 12.3268 10.7398 12.1535 10.8598 12.0268C11.1065 11.7802 11.5532 11.7802 11.8065 12.0268C11.9265 12.1535 11.9998 12.3268 11.9998 12.5002C11.9998 12.6735 11.9265 12.8468 11.8065 12.9735Z" fill="url(#paint1_linear_505_59)"/>
</g>
<defs>
<linearGradient id="paint0_linear_505_59" x1="2.6665" y1="8.00016" x2="13.9998" y2="8.00016" gradientUnits="userSpaceOnUse">
<stop stop-color="#696EFF"/>
<stop offset="1" stop-color="#F8ACFF"/>
</linearGradient>
<linearGradient id="paint1_linear_505_59" x1="2.6665" y1="8.00016" x2="13.9998" y2="8.00016" gradientUnits="userSpaceOnUse">
<stop stop-color="#696EFF"/>
<stop offset="1" stop-color="#F8ACFF"/>
</linearGradient>
<clipPath id="clip0_505_59">
<rect width="16" height="16" fill="white"/>
</clipPath>
</defs>
</svg>
