<svg width="16" height="16" viewBox="0 0 16 16" fill="none" xmlns="http://www.w3.org/2000/svg">
<g clip-path="url(#clip0_505_353)">
<path d="M14.3019 9.09334V9.76001C14.3019 9.94001 14.1619 10.0867 13.9752 10.0933H13.0019C12.6485 10.0933 12.3285 9.83334 12.3019 9.48668C12.2819 9.28001 12.3619 9.08668 12.4952 8.95334C12.6152 8.82668 12.7819 8.76001 12.9619 8.76001H13.9685C14.1619 8.76668 14.3019 8.91334 14.3019 9.09334Z" fill="url(#paint0_linear_505_353)"/>
<path d="M11.9953 8.45993C11.6619 8.78659 11.5019 9.27326 11.6353 9.77993C11.8086 10.3999 12.4153 10.7933 13.0553 10.7933H13.6353C14.0019 10.7933 14.3019 11.0933 14.3019 11.4599V11.5866C14.3019 12.9666 13.1753 14.0933 11.7953 14.0933H4.14192C2.76192 14.0933 1.63525 12.9666 1.63525 11.5866V7.09993C1.63525 6.27993 2.02859 5.55326 2.63525 5.09993C3.05525 4.77993 3.57525 4.59326 4.14192 4.59326H11.7953C13.1753 4.59326 14.3019 5.71993 14.3019 7.09993V7.39326C14.3019 7.75993 14.0019 8.05993 13.6353 8.05993H12.9553C12.5819 8.05993 12.2419 8.20659 11.9953 8.45993Z" fill="url(#paint1_linear_505_353)"/>
<path d="M10.8022 3.21325C10.9822 3.39325 10.8288 3.67325 10.5755 3.67325L5.45549 3.66659C5.16216 3.66659 5.00882 3.30659 5.22215 3.09992L6.30215 2.01325C7.21549 1.10659 8.69549 1.10659 9.60882 2.01325L10.7755 3.19325C10.7822 3.19992 10.7955 3.20659 10.8022 3.21325Z" fill="url(#paint2_linear_505_353)"/>
</g>
<defs>
<linearGradient id="paint0_linear_505_353" x1="12.2988" y1="9.42668" x2="14.3019" y2="9.42668" gradientUnits="userSpaceOnUse">
<stop stop-color="#696EFF"/>
<stop offset="1" stop-color="#F8ACFF"/>
</linearGradient>
<linearGradient id="paint1_linear_505_353" x1="1.63525" y1="9.34326" x2="14.3019" y2="9.34326" gradientUnits="userSpaceOnUse">
<stop stop-color="#696EFF"/>
<stop offset="1" stop-color="#F8ACFF"/>
</linearGradient>
<linearGradient id="paint2_linear_505_353" x1="5.12256" y1="2.50325" x2="10.8805" y2="2.50325" gradientUnits="userSpaceOnUse">
<stop stop-color="#696EFF"/>
<stop offset="1" stop-color="#F8ACFF"/>
</linearGradient>
<clipPath id="clip0_505_353">
<rect width="16" height="16" fill="white"/>
</clipPath>
</defs>
</svg>
