<svg width="32" height="32" viewBox="0 0 32 32" fill="none" xmlns="http://www.w3.org/2000/svg">
<path fill-rule="evenodd" clip-rule="evenodd" d="M7 6.625C7.41421 6.625 7.75 6.96079 7.75 7.375V10.375C7.75 10.7892 7.41421 11.125 7 11.125C6.58579 11.125 6.25 10.7892 6.25 10.375V7.375C6.25 6.96079 6.58579 6.625 7 6.625Z" fill="url(#paint0_linear_505_311)" fill-opacity="0.5"/>
<path fill-rule="evenodd" clip-rule="evenodd" d="M13 6.625C13.4142 6.625 13.75 6.96079 13.75 7.375V10.375C13.75 10.7892 13.4142 11.125 13 11.125C12.5858 11.125 12.25 10.7892 12.25 10.375V7.375C12.25 6.96079 12.5858 6.625 13 6.625Z" fill="url(#paint1_linear_505_311)" fill-opacity="0.5"/>
<path fill-rule="evenodd" clip-rule="evenodd" d="M2.90717 2.90717C4.80414 1.0102 7.67603 0.25 11.5 0.25H20.5C24.324 0.25 27.1959 1.0102 29.0928 2.90717C30.9898 4.80414 31.75 7.67603 31.75 11.5V20.5C31.75 24.324 30.9898 27.1959 29.0928 29.0928C27.1959 30.9898 24.324 31.75 20.5 31.75H11.5C7.67603 31.75 4.80414 30.9898 2.90717 29.0928C1.0102 27.1959 0.25 24.324 0.25 20.5V11.5C0.25 7.67603 1.0102 4.80414 2.90717 2.90717ZM3.96783 3.96783C2.4898 5.44586 1.75 7.82397 1.75 11.5V20.5C1.75 24.176 2.4898 26.5541 3.96783 28.0322C5.44586 29.5102 7.82397 30.25 11.5 30.25H20.5C24.176 30.25 26.5541 29.5102 28.0322 28.0322C29.5102 26.5541 30.25 24.176 30.25 20.5V11.5C30.25 7.82397 29.5102 5.44586 28.0322 3.96783C26.5541 2.4898 24.176 1.75 20.5 1.75H11.5C7.82397 1.75 5.44586 2.4898 3.96783 3.96783Z" fill="url(#paint2_linear_505_311)" fill-opacity="0.5"/>
<path fill-rule="evenodd" clip-rule="evenodd" d="M7 21.25C7.41421 21.25 7.75 21.5858 7.75 22V25C7.75 25.4142 7.41421 25.75 7 25.75C6.58579 25.75 6.25 25.4142 6.25 25V22C6.25 21.5858 6.58579 21.25 7 21.25Z" fill="url(#paint3_linear_505_311)" fill-opacity="0.5"/>
<path fill-rule="evenodd" clip-rule="evenodd" d="M13 21.25C13.4142 21.25 13.75 21.5858 13.75 22V25C13.75 25.4142 13.4142 25.75 13 25.75C12.5858 25.75 12.25 25.4142 12.25 25V22C12.25 21.5858 12.5858 21.25 13 21.25Z" fill="url(#paint4_linear_505_311)" fill-opacity="0.5"/>
<path fill-rule="evenodd" clip-rule="evenodd" d="M18.25 8.875C18.25 8.46079 18.5858 8.125 19 8.125H25C25.4142 8.125 25.75 8.46079 25.75 8.875C25.75 9.28921 25.4142 9.625 25 9.625H19C18.5858 9.625 18.25 9.28921 18.25 8.875Z" fill="url(#paint5_linear_505_311)" fill-opacity="0.5"/>
<path fill-rule="evenodd" clip-rule="evenodd" d="M18.25 23.5C18.25 23.0858 18.5858 22.75 19 22.75H25C25.4142 22.75 25.75 23.0858 25.75 23.5C25.75 23.9142 25.4142 24.25 25 24.25H19C18.5858 24.25 18.25 23.9142 18.25 23.5Z" fill="url(#paint6_linear_505_311)" fill-opacity="0.5"/>
<path fill-rule="evenodd" clip-rule="evenodd" d="M0.25 16C0.25 15.5858 0.585786 15.25 1 15.25H31C31.4142 15.25 31.75 15.5858 31.75 16C31.75 16.4142 31.4142 16.75 31 16.75H1C0.585786 16.75 0.25 16.4142 0.25 16Z" fill="url(#paint7_linear_505_311)" fill-opacity="0.5"/>
<defs>
<linearGradient id="paint0_linear_505_311" x1="0.25" y1="16" x2="31.75" y2="16" gradientUnits="userSpaceOnUse">
<stop stop-color="#696EFF"/>
<stop offset="1" stop-color="#F8ACFF"/>
</linearGradient>
<linearGradient id="paint1_linear_505_311" x1="0.25" y1="16" x2="31.75" y2="16" gradientUnits="userSpaceOnUse">
<stop stop-color="#696EFF"/>
<stop offset="1" stop-color="#F8ACFF"/>
</linearGradient>
<linearGradient id="paint2_linear_505_311" x1="0.25" y1="16" x2="31.75" y2="16" gradientUnits="userSpaceOnUse">
<stop stop-color="#696EFF"/>
<stop offset="1" stop-color="#F8ACFF"/>
</linearGradient>
<linearGradient id="paint3_linear_505_311" x1="0.25" y1="16" x2="31.75" y2="16" gradientUnits="userSpaceOnUse">
<stop stop-color="#696EFF"/>
<stop offset="1" stop-color="#F8ACFF"/>
</linearGradient>
<linearGradient id="paint4_linear_505_311" x1="0.25" y1="16" x2="31.75" y2="16" gradientUnits="userSpaceOnUse">
<stop stop-color="#696EFF"/>
<stop offset="1" stop-color="#F8ACFF"/>
</linearGradient>
<linearGradient id="paint5_linear_505_311" x1="0.25" y1="16" x2="31.75" y2="16" gradientUnits="userSpaceOnUse">
<stop stop-color="#696EFF"/>
<stop offset="1" stop-color="#F8ACFF"/>
</linearGradient>
<linearGradient id="paint6_linear_505_311" x1="0.25" y1="16" x2="31.75" y2="16" gradientUnits="userSpaceOnUse">
<stop stop-color="#696EFF"/>
<stop offset="1" stop-color="#F8ACFF"/>
</linearGradient>
<linearGradient id="paint7_linear_505_311" x1="0.25" y1="16" x2="31.75" y2="16" gradientUnits="userSpaceOnUse">
<stop stop-color="#696EFF"/>
<stop offset="1" stop-color="#F8ACFF"/>
</linearGradient>
</defs>
</svg>
