<svg width="24" height="24" viewBox="0 0 24 24" fill="none" xmlns="http://www.w3.org/2000/svg">
<g clip-path="url(#clip0_505_335)">
<path d="M16.1893 2H7.80927C4.59927 2 1.99927 4.6 1.99927 7.81V10.25C1.99927 10.8 2.44927 11.25 2.99927 11.25H20.9993C21.5493 11.25 21.9993 10.8 21.9993 10.25V7.81C21.9993 4.6 19.3993 2 16.1893 2ZM6.74927 8.25C6.74927 8.66 6.40927 9 5.99927 9C5.58927 9 5.24927 8.66 5.24927 8.25V6.25C5.24927 5.84 5.58927 5.5 5.99927 5.5C6.40927 5.5 6.74927 5.84 6.74927 6.25V8.25ZM10.7493 8.25C10.7493 8.66 10.4093 9 9.99927 9C9.58927 9 9.24927 8.66 9.24927 8.25V6.25C9.24927 5.84 9.58927 5.5 9.99927 5.5C10.4093 5.5 10.7493 5.84 10.7493 6.25V8.25ZM17.9993 8H13.9993C13.5893 8 13.2493 7.66 13.2493 7.25C13.2493 6.84 13.5893 6.5 13.9993 6.5H17.9993C18.4093 6.5 18.7493 6.84 18.7493 7.25C18.7493 7.66 18.4093 8 17.9993 8Z" fill="url(#paint0_linear_505_335)"/>
<path d="M1.99902 16.19C1.99902 19.4 4.59902 22 7.80902 22H16.179C19.399 22 21.999 19.4 21.999 16.19V13.75C21.999 13.2 21.549 12.75 20.999 12.75H2.99902C2.44902 12.75 1.99902 13.2 1.99902 13.75V16.19ZM13.999 16.25H17.999C18.409 16.25 18.749 16.59 18.749 17C18.749 17.41 18.409 17.75 17.999 17.75H13.999C13.589 17.75 13.249 17.41 13.249 17C13.249 16.59 13.589 16.25 13.999 16.25ZM9.24902 16C9.24902 15.59 9.58902 15.25 9.99902 15.25C10.409 15.25 10.749 15.59 10.749 16V18C10.749 18.41 10.409 18.75 9.99902 18.75C9.58902 18.75 9.24902 18.41 9.24902 18V16ZM5.24902 16C5.24902 15.59 5.58902 15.25 5.99902 15.25C6.40902 15.25 6.74902 15.59 6.74902 16V18C6.74902 18.41 6.40902 18.75 5.99902 18.75C5.58902 18.75 5.24902 18.41 5.24902 18V16Z" fill="url(#paint1_linear_505_335)"/>
</g>
<defs>
<linearGradient id="paint0_linear_505_335" x1="20.1242" y1="20.125" x2="4.49926" y2="4.4998" gradientUnits="userSpaceOnUse">
<stop offset="0.0470596" stop-color="#69BEFF"/>
<stop offset="0.238821" stop-color="#696EFF"/>
<stop offset="0.5" stop-color="#3A3EC6"/>
<stop offset="0.5" stop-color="#FBCBFF"/>
<stop offset="0.875468" stop-color="#696EFF"/>
</linearGradient>
<linearGradient id="paint1_linear_505_335" x1="20.1242" y1="20.125" x2="4.49926" y2="4.4998" gradientUnits="userSpaceOnUse">
<stop offset="0.0470596" stop-color="#69BEFF"/>
<stop offset="0.238821" stop-color="#696EFF"/>
<stop offset="0.5" stop-color="#3A3EC6"/>
<stop offset="0.5" stop-color="#FBCBFF"/>
<stop offset="0.875468" stop-color="#696EFF"/>
</linearGradient>
<clipPath id="clip0_505_335">
<rect width="24" height="24" fill="white"/>
</clipPath>
</defs>
</svg>
