<svg width="26" height="26" viewBox="0 0 26 26" fill="none" xmlns="http://www.w3.org/2000/svg">
<path d="M16.7997 3.20999C16.3897 2.79999 15.6797 3.07999 15.6797 3.64999V7.13999C15.6797 8.59999 16.9197 9.80999 18.4297 9.80999C19.3797 9.81999 20.6997 9.81999 21.8297 9.81999C22.3997 9.81999 22.6997 9.14999 22.2997 8.74999C20.8597 7.29999 18.2797 4.68999 16.7997 3.20999Z" fill="url(#paint0_linear_552_2778)"/>
<path d="M21.5 11.19H18.61C16.24 11.19 14.31 9.26 14.31 6.89V4C14.31 3.45 13.86 3 13.31 3H9.07C5.99 3 3.5 5 3.5 8.57V17.43C3.5 21 5.99 23 9.07 23H16.93C20.01 23 22.5 21 22.5 17.43V12.19C22.5 11.64 22.05 11.19 21.5 11.19ZM12.5 18.75H8.5C8.09 18.75 7.75 18.41 7.75 18C7.75 17.59 8.09 17.25 8.5 17.25H12.5C12.91 17.25 13.25 17.59 13.25 18C13.25 18.41 12.91 18.75 12.5 18.75ZM14.5 14.75H8.5C8.09 14.75 7.75 14.41 7.75 14C7.75 13.59 8.09 13.25 8.5 13.25H14.5C14.91 13.25 15.25 13.59 15.25 14C15.25 14.41 14.91 14.75 14.5 14.75Z" fill="url(#paint1_linear_552_2778)"/>
<defs>
<linearGradient id="paint0_linear_552_2778" x1="15.6797" y1="6.41756" x2="22.4828" y2="6.41756" gradientUnits="userSpaceOnUse">
<stop stop-color="#696EFF"/>
<stop offset="1" stop-color="#F8ACFF"/>
</linearGradient>
<linearGradient id="paint1_linear_552_2778" x1="3.5" y1="13" x2="22.5" y2="13" gradientUnits="userSpaceOnUse">
<stop stop-color="#696EFF"/>
<stop offset="1" stop-color="#F8ACFF"/>
</linearGradient>
</defs>
</svg>
