<svg width="14" height="14" viewBox="0 0 14 14" fill="none" xmlns="http://www.w3.org/2000/svg">
<path d="M8.58559 11.0819C8.81768 10.9914 9.08571 11.1891 9.03599 11.4332V11.4332C8.75016 12.5416 8.10849 12.8332 7.32099 12.8332H6.68516C5.89766 12.8332 5.25016 12.5416 4.97016 11.4274V11.4274C4.92218 11.1829 5.18892 10.9868 5.42087 11.0776C5.91941 11.2729 6.45229 11.3749 7.00016 11.3749C7.55065 11.3749 8.08623 11.2765 8.58559 11.0819Z" fill="#9A99B2"/>
<path d="M9.03596 2.5665C9.08752 2.81308 8.81569 3.01386 8.58129 2.92159C8.09259 2.7292 7.55941 2.62484 7.00013 2.62484C6.44154 2.62484 5.90936 2.7305 5.42026 2.92308C5.18816 3.01446 4.92034 2.81676 4.97013 2.57234V2.57234C5.25013 1.45817 5.89763 1.1665 6.68513 1.1665H7.32096C8.10846 1.1665 8.75013 1.45817 9.03596 2.5665V2.5665Z" fill="#9A99B2"/>
<path d="M7.00016 3.2085C4.906 3.2085 3.2085 4.906 3.2085 7.00016C3.2085 8.22516 3.786 9.31016 4.68433 10.0043H4.69016C5.33183 10.5002 6.131 10.7918 7.00016 10.7918C7.881 10.7918 8.686 10.4943 9.32766 9.99266H9.3335C10.2202 9.2985 10.7918 8.2135 10.7918 7.00016C10.7918 4.906 9.09433 3.2085 7.00016 3.2085ZM8.126 8.3885C8.0385 8.476 7.92766 8.51683 7.81683 8.51683C7.706 8.51683 7.59516 8.476 7.50766 8.3885L6.691 7.57183C6.60933 7.49016 6.56266 7.37933 6.56266 7.26266V5.63516C6.56266 5.396 6.761 5.19766 7.00016 5.19766C7.23933 5.19766 7.43766 5.396 7.43766 5.63516V7.08183L8.126 7.77016C8.29516 7.93933 8.29516 8.21933 8.126 8.3885Z" fill="#9A99B2"/>
</svg>
