<svg width="16" height="16" viewBox="0 0 16 16" fill="none" xmlns="http://www.w3.org/2000/svg">
<g clip-path="url(#clip0_522_1038)">
<path d="M10.7935 1.3335H5.20683C2.78016 1.3335 1.3335 2.78016 1.3335 5.20683V10.7868C1.3335 13.2202 2.78016 14.6668 5.20683 14.6668H10.7868C13.2135 14.6668 14.6602 13.2202 14.6602 10.7935V5.20683C14.6668 2.78016 13.2202 1.3335 10.7935 1.3335ZM7.3535 11.7735C7.54683 11.9668 7.54683 12.2868 7.3535 12.4802C7.2535 12.5802 7.12683 12.6268 7.00016 12.6268C6.8735 12.6268 6.74683 12.5802 6.64683 12.4802L5.50016 11.3335L4.3535 12.4802C4.2535 12.5735 4.12683 12.6268 4.00016 12.6268C3.8735 12.6268 3.74683 12.5802 3.64683 12.4802C3.4535 12.2868 3.4535 11.9668 3.64683 11.7735L4.7935 10.6268L3.64683 9.48016C3.4535 9.28683 3.4535 8.96683 3.64683 8.7735C3.84016 8.58016 4.16016 8.58016 4.3535 8.7735L5.50016 9.92016L6.64683 8.7735C6.84016 8.58016 7.16016 8.58016 7.3535 8.7735C7.54683 8.96683 7.54683 9.28683 7.3535 9.48016L6.20683 10.6268L7.3535 11.7735ZM7.00016 5.8735H4.00016C3.72683 5.8735 3.50016 5.64683 3.50016 5.3735C3.50016 5.10016 3.72683 4.8735 4.00016 4.8735H7.00016C7.2735 4.8735 7.50016 5.10016 7.50016 5.3735C7.50016 5.64683 7.2735 5.8735 7.00016 5.8735ZM12.0002 12.3735H9.00016C8.72683 12.3735 8.50016 12.1468 8.50016 11.8735C8.50016 11.6002 8.72683 11.3735 9.00016 11.3735H12.0002C12.2735 11.3735 12.5002 11.6002 12.5002 11.8735C12.5002 12.1468 12.2735 12.3735 12.0002 12.3735ZM12.0002 9.8735H9.00016C8.72683 9.8735 8.50016 9.64683 8.50016 9.3735C8.50016 9.10016 8.72683 8.8735 9.00016 8.8735H12.0002C12.2735 8.8735 12.5002 9.10016 12.5002 9.3735C12.5002 9.64683 12.2735 9.8735 12.0002 9.8735ZM12.0002 5.8735H11.0135V6.8735C11.0135 7.14683 10.7868 7.3735 10.5135 7.3735C10.2402 7.3735 10.0135 7.14683 10.0135 6.8735V5.8735H9.00016C8.72683 5.8735 8.50016 5.64683 8.50016 5.3735C8.50016 5.10016 8.72683 4.8735 9.00016 4.8735H10.0135V3.8735C10.0135 3.60016 10.2402 3.3735 10.5135 3.3735C10.7868 3.3735 11.0135 3.60016 11.0135 3.8735V4.8735H12.0002C12.2735 4.8735 12.5002 5.10016 12.5002 5.3735C12.5002 5.64683 12.2735 5.8735 12.0002 5.8735Z" fill="url(#paint0_linear_522_1038)"/>
</g>
<defs>
<linearGradient id="paint0_linear_522_1038" x1="1.3335" y1="8.00016" x2="14.6602" y2="8.00016" gradientUnits="userSpaceOnUse">
<stop stop-color="#696EFF"/>
<stop offset="1" stop-color="#F8ACFF"/>
</linearGradient>
<clipPath id="clip0_522_1038">
<rect width="16" height="16" fill="white"/>
</clipPath>
</defs>
</svg>
