<svg width="36" height="36" viewBox="0 0 36 36" fill="none" xmlns="http://www.w3.org/2000/svg">
<path fill-rule="evenodd" clip-rule="evenodd" d="M5.57284 7.58085C4.45538 8.61848 3.75 10.2679 3.75 12.75V23.25C3.75 25.732 4.45538 27.3815 5.57284 28.4192C6.70035 29.4661 8.36497 30 10.5 30H25.5C27.635 30 29.2996 29.4661 30.4272 28.4192C31.5446 27.3815 32.25 25.732 32.25 23.25V12.75C32.25 10.2679 31.5446 8.61848 30.4272 7.58085C29.2996 6.53387 27.635 6 25.5 6H10.5C8.36497 6 6.70035 6.53387 5.57284 7.58085ZM4.55216 6.48165C6.04965 5.09113 8.13503 4.5 10.5 4.5H25.5C27.865 4.5 29.9504 5.09113 31.4478 6.48165C32.9554 7.88152 33.75 9.98205 33.75 12.75V23.25C33.75 26.018 32.9554 28.1185 31.4478 29.5183C29.9504 30.9089 27.865 31.5 25.5 31.5H10.5C8.13503 31.5 6.04965 30.9089 4.55216 29.5183C3.04462 28.1185 2.25 26.018 2.25 23.25V12.75C2.25 9.98205 3.04462 7.88152 4.55216 6.48165ZM23.25 10.5C23.25 10.0858 23.5858 9.75 24 9.75H28.5C28.9142 9.75 29.25 10.0858 29.25 10.5C29.25 10.9142 28.9142 11.25 28.5 11.25H24C23.5858 11.25 23.25 10.9142 23.25 10.5ZM18 14.25C15.9289 14.25 14.25 15.9289 14.25 18C14.25 20.0711 15.9289 21.75 18 21.75C20.0711 21.75 21.75 20.0711 21.75 18C21.75 15.9289 20.0711 14.25 18 14.25ZM12.75 18C12.75 15.1005 15.1005 12.75 18 12.75C20.8995 12.75 23.25 15.1005 23.25 18C23.25 20.8995 20.8995 23.25 18 23.25C15.1005 23.25 12.75 20.8995 12.75 18ZM6.75 25.5C6.75 25.0858 7.08579 24.75 7.5 24.75H12C12.4142 24.75 12.75 25.0858 12.75 25.5C12.75 25.9142 12.4142 26.25 12 26.25H7.5C7.08579 26.25 6.75 25.9142 6.75 25.5Z" fill="url(#paint0_linear_522_1009)" fill-opacity="0.7"/>
<defs>
<linearGradient id="paint0_linear_522_1009" x1="2.25" y1="18" x2="33.75" y2="18" gradientUnits="userSpaceOnUse">
<stop stop-color="#696EFF"/>
<stop offset="1" stop-color="#F8ACFF"/>
</linearGradient>
</defs>
</svg>
