<svg width="16" height="16" viewBox="0 0 16 16" fill="none" xmlns="http://www.w3.org/2000/svg">
<g clip-path="url(#clip0_552_2256)">
<path d="M10.793 1.3335H5.20634C2.77967 1.3335 1.33301 2.78016 1.33301 5.20683V10.7868C1.33301 13.2202 2.77967 14.6668 5.20634 14.6668H10.7863C13.213 14.6668 14.6597 13.2202 14.6597 10.7935V5.20683C14.6663 2.78016 13.2197 1.3335 10.793 1.3335ZM5.64634 5.98683L7.64634 3.98683C7.69301 3.94016 7.74634 3.90683 7.80634 3.88016C7.92634 3.82683 8.06634 3.82683 8.18634 3.88016C8.24634 3.90683 8.29967 3.94016 8.34634 3.98683L10.3463 5.98683C10.5397 6.18016 10.5397 6.50016 10.3463 6.6935C10.2463 6.7935 10.1197 6.84016 9.99301 6.84016C9.86634 6.84016 9.73967 6.7935 9.63967 6.6935L8.49301 5.54683V9.6735C8.49301 9.94683 8.26634 10.1735 7.99301 10.1735C7.71967 10.1735 7.49301 9.94683 7.49301 9.6735V5.54683L6.34634 6.6935C6.15301 6.88683 5.83301 6.88683 5.63967 6.6935C5.44634 6.50016 5.45301 6.18683 5.64634 5.98683ZM12.1597 11.4802C10.8197 11.9268 9.41301 12.1535 7.99967 12.1535C6.58634 12.1535 5.17967 11.9268 3.83967 11.4802C3.57967 11.3935 3.43967 11.1068 3.52634 10.8468C3.61301 10.5868 3.89967 10.4402 4.15967 10.5335C6.63967 11.3602 9.36634 11.3602 11.8463 10.5335C12.1063 10.4468 12.393 10.5868 12.4797 10.8468C12.5597 11.1135 12.4197 11.3935 12.1597 11.4802Z" fill="url(#paint0_linear_552_2256)"/>
</g>
<defs>
<linearGradient id="paint0_linear_552_2256" x1="1.33301" y1="8.00016" x2="14.6597" y2="8.00016" gradientUnits="userSpaceOnUse">
<stop stop-color="#696EFF"/>
<stop offset="1" stop-color="#F8ACFF"/>
</linearGradient>
<clipPath id="clip0_552_2256">
<rect width="16" height="16" fill="white"/>
</clipPath>
</defs>
</svg>
