<svg width="102" height="102" viewBox="0 0 102 102" fill="none" xmlns="http://www.w3.org/2000/svg">
<circle cx="51" cy="51" r="39.5" stroke="url(#paint0_linear_522_2002)"/>
<circle cx="51" cy="51" r="50" stroke="white" stroke-width="1.5" stroke-linecap="round" stroke-dasharray="0.1 7"/>
<g filter="url(#filter0_i_522_2002)">
<circle cx="51" cy="51" r="30" fill="white"/>
</g>
<path d="M65.1532 37.4386C65.1532 37.4386 68.31 36.2076 68.0469 39.197C67.9592 40.428 67.17 44.7363 66.5562 49.3963L64.4517 63.2004C64.4517 63.2004 64.2763 65.2226 62.6979 65.5744C61.1194 65.926 58.7519 64.3434 58.3134 63.9917C57.9626 63.728 51.7368 59.7713 49.5445 57.837C48.9306 57.3095 48.2291 56.2544 49.6322 55.0234L58.8396 46.231C59.8918 45.1759 60.9441 42.714 56.5596 45.7035L44.2831 54.0563C44.2831 54.0563 42.8801 54.9355 40.2495 54.1442L34.5497 52.3857C34.5497 52.3857 32.4451 51.0669 36.0404 49.7479C44.8093 45.6155 55.5951 41.3951 65.1532 37.4386Z" fill="url(#paint1_linear_522_2002)"/>
<defs>
<filter id="filter0_i_522_2002" x="21" y="21" width="60" height="61" filterUnits="userSpaceOnUse" color-interpolation-filters="sRGB">
<feFlood flood-opacity="0" result="BackgroundImageFix"/>
<feBlend mode="normal" in="SourceGraphic" in2="BackgroundImageFix" result="shape"/>
<feColorMatrix in="SourceAlpha" type="matrix" values="0 0 0 0 0 0 0 0 0 0 0 0 0 0 0 0 0 0 127 0" result="hardAlpha"/>
<feOffset dy="1"/>
<feGaussianBlur stdDeviation="2.5"/>
<feComposite in2="hardAlpha" operator="arithmetic" k2="-1" k3="1"/>
<feColorMatrix type="matrix" values="0 0 0 0 0.352303 0 0 0 0 0.338508 0 0 0 0 0.940905 0 0 0 0.18 0"/>
<feBlend mode="normal" in2="shape" result="effect1_innerShadow_522_2002"/>
</filter>
<linearGradient id="paint0_linear_522_2002" x1="11" y1="51" x2="91" y2="51" gradientUnits="userSpaceOnUse">
<stop stop-color="#696EFF"/>
<stop offset="1" stop-color="#F8ACFF"/>
</linearGradient>
<linearGradient id="paint1_linear_522_2002" x1="64.8633" y1="62.959" x2="43.0107" y2="36.7359" gradientUnits="userSpaceOnUse">
<stop offset="0.0470596" stop-color="#69BEFF"/>
<stop offset="0.238821" stop-color="#696EFF"/>
<stop offset="0.5" stop-color="#3A3EC6"/>
<stop offset="0.5" stop-color="#FBCBFF"/>
<stop offset="0.875468" stop-color="#696EFF"/>
</linearGradient>
</defs>
</svg>
