<svg width="75" height="50" viewBox="0 0 75 50" fill="none" xmlns="http://www.w3.org/2000/svg">
<path d="M74.6667 38C74.6667 39.4728 73.4728 40.6667 72 40.6667C70.5272 40.6667 69.3333 39.4728 69.3333 38C69.3333 36.5272 70.5272 35.3333 72 35.3333C73.4728 35.3333 74.6667 36.5272 74.6667 38ZM2.75736 26.7574L2.40381 27.1109L2.75736 26.7574ZM72.5 38V43H71.5V38H72.5ZM66 49.5H27.4853V48.5H66V49.5ZM22.8891 47.5962L2.40381 27.1109L3.11091 26.4038L23.5962 46.8891L22.8891 47.5962ZM0.5 22.5147V0H1.5V22.5147H0.5ZM2.40381 27.1109C1.18482 25.8919 0.5 24.2386 0.5 22.5147H1.5C1.5 23.9734 2.07946 25.3724 3.11091 26.4038L2.40381 27.1109ZM27.4853 49.5C25.7614 49.5 24.1081 48.8152 22.8891 47.5962L23.5962 46.8891C24.6276 47.9205 26.0266 48.5 27.4853 48.5V49.5ZM72.5 43C72.5 46.5899 69.5899 49.5 66 49.5V48.5C69.0376 48.5 71.5 46.0376 71.5 43H72.5Z" fill="url(#paint0_linear_552_2739)"/>
<defs>
<linearGradient id="paint0_linear_552_2739" x1="41.5" y1="49" x2="41.5" y2="3" gradientUnits="userSpaceOnUse">
<stop stop-color="#696EFF"/>
<stop offset="1" stop-color="#696EFF" stop-opacity="0"/>
</linearGradient>
</defs>
</svg>
