<svg width="31" height="43" viewBox="0 0 31 43" fill="none" xmlns="http://www.w3.org/2000/svg">
<path d="M0.333333 40C0.333333 41.4728 1.52724 42.6667 3 42.6667C4.47276 42.6667 5.66667 41.4728 5.66667 40C5.66667 38.5272 4.47276 37.3333 3 37.3333C1.52724 37.3333 0.333333 38.5272 0.333333 40ZM3.5 40V30H2.5V40H3.5ZM9 24.5H24V23.5H9V24.5ZM30.5 18V0H29.5V18H30.5ZM24 24.5C27.5899 24.5 30.5 21.5899 30.5 18H29.5C29.5 21.0376 27.0376 23.5 24 23.5V24.5ZM3.5 30C3.5 26.9624 5.96243 24.5 9 24.5V23.5C5.41015 23.5 2.5 26.4101 2.5 30H3.5Z" fill="url(#paint0_linear_552_2747)"/>
<defs>
<linearGradient id="paint0_linear_552_2747" x1="33.5" y1="40" x2="33.5" y2="-3" gradientUnits="userSpaceOnUse">
<stop stop-color="#696EFF"/>
<stop offset="1" stop-color="#696EFF" stop-opacity="0"/>
</linearGradient>
</defs>
</svg>
